<svg id="svg" version="1.1" xmlns="http://www.w3.org/2000/svg" xmlns:xlink="http://www.w3.org/1999/xlink" width="164" height="50" viewBox="0, 0, 400,121.95121951219512"><g id="svgg"><path id="path0" d="M30.546 13.375 C 30.131 13.912,30.147 14.000,30.657 14.000 C 31.090 14.000,31.167 13.937,31.167 13.583 C 31.167 13.138,30.820 13.021,30.546 13.375 M122.500 17.333 C 122.500 17.564,122.611 17.667,122.859 17.667 C 123.208 17.667,123.209 17.657,122.917 17.333 C 122.751 17.150,122.589 17.000,122.558 17.000 C 122.526 17.000,122.500 17.150,122.500 17.333 M285.518 31.650 C 285.233 31.916,285.000 32.188,285.000 32.253 C 285.000 32.319,285.236 32.142,285.526 31.859 C 285.815 31.576,286.115 31.384,286.192 31.432 C 286.270 31.480,286.333 31.440,286.333 31.343 C 286.333 31.042,286.057 31.146,285.518 31.650 M57.337 31.519 C 56.237 31.958,56.333 29.126,56.333 60.994 L 56.333 89.771 56.875 90.177 C 57.401 90.572,57.515 90.585,60.787 90.637 L 64.157 90.691 64.579 90.270 L 65.000 89.848 65.000 78.195 C 65.000 71.786,65.047 66.307,65.104 66.021 L 65.208 65.500 76.813 65.495 C 89.074 65.489,88.718 65.512,89.139 64.719 C 89.492 64.057,89.399 58.945,89.029 58.609 C 88.751 58.358,87.672 58.333,76.948 58.333 L 65.173 58.333 65.082 57.958 C 65.032 57.752,65.012 53.233,65.037 47.917 L 65.083 38.250 79.016 38.167 C 95.701 38.067,93.828 38.499,93.828 34.750 C 93.828 31.973,93.822 31.951,92.958 31.590 C 92.220 31.281,58.102 31.214,57.337 31.519 M92.409 32.027 L 92.833 32.220 92.833 34.750 L 92.833 37.280 92.409 37.473 C 92.098 37.615,88.389 37.667,78.547 37.667 C 66.277 37.667,65.083 37.691,64.805 37.942 C 64.516 38.204,64.500 38.744,64.500 48.266 L 64.500 58.314 64.870 58.574 C 65.197 58.803,66.611 58.833,76.837 58.833 C 85.634 58.833,88.482 58.882,88.633 59.033 C 88.912 59.312,88.912 64.021,88.633 64.300 C 88.482 64.452,85.625 64.500,76.798 64.500 L 65.162 64.500 64.832 65.042 C 64.510 65.568,64.501 65.915,64.501 77.592 C 64.500 86.709,64.452 89.648,64.300 89.800 C 64.018 90.082,57.816 90.082,57.533 89.800 C 57.379 89.646,57.333 83.002,57.333 60.909 L 57.333 32.218 57.708 32.037 C 58.260 31.771,91.825 31.761,92.409 32.027 M143.696 32.419 C 143.743 32.466,150.067 32.504,157.750 32.504 C 165.433 32.504,171.757 32.466,171.804 32.419 C 171.851 32.372,165.526 32.333,157.750 32.333 C 149.974 32.333,143.649 32.372,143.696 32.419 M306.338 32.519 C 305.877 32.703,305.668 32.962,305.680 33.333 C 305.684 33.474,305.753 33.421,305.837 33.211 C 305.920 33.007,306.234 32.732,306.535 32.600 C 307.149 32.332,306.981 32.262,306.338 32.519 M142.609 32.805 C 142.457 32.972,142.336 33.179,142.338 33.263 C 142.341 33.348,142.423 33.281,142.519 33.114 C 142.616 32.948,142.857 32.747,143.056 32.667 C 143.300 32.568,143.331 32.518,143.151 32.511 C 143.005 32.505,142.761 32.637,142.609 32.805 M172.167 32.632 C 172.167 32.743,172.236 32.833,172.322 32.833 C 172.407 32.833,172.501 33.002,172.530 33.208 C 172.564 33.446,172.690 33.575,172.875 33.560 C 173.035 33.547,173.167 33.596,173.167 33.667 C 173.167 33.739,173.279 33.841,173.417 33.894 C 173.781 34.034,173.743 33.978,172.917 33.167 C 172.504 32.762,172.167 32.521,172.167 32.632 M343.749 32.850 C 343.674 32.979,343.677 33.025,343.756 32.953 C 343.835 32.881,343.994 32.994,344.110 33.203 C 344.227 33.412,344.324 33.504,344.327 33.407 C 344.340 33.029,343.894 32.600,343.749 32.850 M140.914 58.250 C 140.914 71.083,140.934 76.309,140.958 69.862 C 140.982 63.415,140.982 52.915,140.958 46.529 C 140.934 40.142,140.914 45.417,140.914 58.250 M303.681 35.402 C 303.464 35.633,303.337 35.934,303.382 36.110 C 303.449 36.368,303.464 36.359,303.481 36.056 C 303.491 35.857,303.706 35.541,303.958 35.353 C 304.210 35.164,304.336 35.008,304.237 35.005 C 304.139 35.002,303.888 35.181,303.681 35.402 M329.538 35.112 C 329.187 35.253,328.799 36.111,329.086 36.111 C 329.214 36.111,329.278 36.045,329.228 35.965 C 329.100 35.758,329.514 35.303,329.749 35.393 C 329.856 35.434,329.944 35.363,329.944 35.234 C 329.944 34.989,329.887 34.971,329.538 35.112 M303.209 37.083 C 303.211 37.450,303.245 37.580,303.285 37.373 C 303.324 37.166,303.323 36.866,303.281 36.706 C 303.239 36.547,303.207 36.717,303.209 37.083 M327.875 37.444 C 327.590 37.559,327.612 37.778,327.909 37.778 C 328.043 37.778,328.105 37.703,328.049 37.611 C 327.986 37.510,328.059 37.487,328.231 37.553 C 328.401 37.618,328.476 37.596,328.415 37.498 C 328.306 37.322,328.203 37.311,327.875 37.444 M313.208 39.370 C 313.002 39.470,312.833 39.689,312.833 39.859 C 312.833 40.265,312.868 40.253,313.390 39.667 C 313.861 39.139,313.821 39.075,313.208 39.370 M336.417 39.647 C 336.049 39.723,335.911 39.849,335.897 40.125 C 335.873 40.573,336.184 40.614,336.532 40.208 C 336.789 39.909,337.060 39.483,336.968 39.522 C 336.940 39.534,336.692 39.590,336.417 39.647 M326.885 39.964 C 326.466 40.231,326.122 41.833,326.484 41.833 C 326.567 41.833,326.596 41.683,326.548 41.499 C 326.425 41.028,326.820 40.163,327.235 39.995 C 327.448 39.909,327.486 39.851,327.333 39.846 C 327.196 39.842,326.994 39.895,326.885 39.964 M304.346 40.105 C 304.316 40.547,304.845 41.452,305.239 41.631 C 305.617 41.803,305.667 41.789,305.667 41.508 C 305.667 41.106,305.192 40.621,304.906 40.731 C 304.778 40.780,304.621 40.630,304.524 40.366 C 304.434 40.119,304.354 40.001,304.346 40.105 M276.375 45.786 C 276.627 45.824,277.040 45.824,277.292 45.786 C 277.544 45.748,277.337 45.717,276.833 45.717 C 276.329 45.717,276.123 45.748,276.375 45.786 M193.208 46.343 C 192.558 46.952,192.549 47.000,193.078 47.000 C 193.393 47.000,193.465 46.935,193.383 46.723 C 193.306 46.521,193.337 46.483,193.497 46.582 C 193.647 46.674,193.678 46.654,193.595 46.518 C 193.527 46.409,193.562 46.210,193.673 46.076 C 194.005 45.676,193.785 45.802,193.208 46.343 M196.500 45.890 C 196.500 46.163,197.075 47.000,197.262 47.000 C 197.632 47.000,197.546 46.762,197.000 46.276 C 196.725 46.031,196.500 45.857,196.500 45.890 M234.581 46.034 C 234.232 46.217,233.833 46.651,233.833 46.846 C 233.833 46.909,234.077 46.948,234.375 46.932 C 234.860 46.907,234.913 46.855,234.881 46.436 C 234.855 46.091,234.908 45.993,235.084 46.061 C 235.215 46.111,235.357 46.096,235.400 46.027 C 235.519 45.835,234.950 45.839,234.581 46.034 M238.314 46.881 C 238.387 46.954,239.189 46.991,240.098 46.964 L 241.750 46.915 239.966 46.832 C 238.985 46.787,238.241 46.809,238.314 46.881 M190.455 46.954 C 190.750 46.990,191.275 46.991,191.621 46.955 C 191.967 46.919,191.725 46.889,191.083 46.888 C 190.442 46.887,190.159 46.917,190.455 46.954 M198.629 46.956 C 199.021 46.991,199.621 46.990,199.963 46.954 C 200.304 46.919,199.983 46.890,199.250 46.890 C 198.517 46.891,198.237 46.920,198.629 46.956 M231.796 46.956 C 232.188 46.991,232.788 46.990,233.129 46.954 C 233.471 46.919,233.150 46.890,232.417 46.890 C 231.683 46.891,231.404 46.920,231.796 46.956 M272.292 46.954 C 272.590 46.991,273.077 46.991,273.375 46.954 C 273.673 46.917,273.429 46.887,272.833 46.887 C 272.237 46.887,271.994 46.917,272.292 46.954 M280.292 46.954 C 280.590 46.991,281.077 46.991,281.375 46.954 C 281.673 46.917,281.429 46.887,280.833 46.887 C 280.237 46.887,279.994 46.917,280.292 46.954 M308.208 46.956 C 308.644 46.990,309.356 46.990,309.792 46.956 C 310.227 46.922,309.871 46.893,309.000 46.893 C 308.129 46.893,307.773 46.922,308.208 46.956 M350.625 46.956 C 351.106 46.990,351.894 46.990,352.375 46.956 C 352.856 46.923,352.462 46.895,351.500 46.895 C 350.537 46.895,350.144 46.923,350.625 46.956 M378.047 46.956 C 378.485 46.990,379.160 46.990,379.547 46.955 C 379.934 46.920,379.575 46.892,378.750 46.892 C 377.925 46.893,377.609 46.922,378.047 46.956 M187.115 47.467 C 186.608 47.996,186.558 48.167,186.911 48.167 C 187.113 48.167,187.518 47.654,187.570 47.333 C 187.577 47.288,187.640 47.269,187.708 47.292 C 187.777 47.315,187.833 47.258,187.833 47.167 C 187.833 46.877,187.577 46.984,187.115 47.467 M228.367 47.337 C 227.690 47.749,227.646 48.210,228.292 48.136 C 228.624 48.098,228.748 47.991,228.744 47.750 C 228.741 47.567,228.814 47.364,228.906 47.301 C 229.319 47.015,228.845 47.047,228.367 47.337 M284.000 47.403 C 284.000 47.548,284.083 47.667,284.184 47.667 C 284.286 47.667,284.327 47.775,284.276 47.908 C 284.216 48.066,284.264 48.119,284.415 48.061 C 284.573 48.000,284.605 47.862,284.515 47.620 C 284.356 47.189,284.000 47.039,284.000 47.403 M347.224 47.424 C 347.074 47.815,347.236 47.861,347.466 47.492 C 347.595 47.286,347.606 47.167,347.496 47.167 C 347.401 47.167,347.278 47.282,347.224 47.424 M311.667 48.028 C 311.667 48.226,311.714 48.342,311.772 48.284 C 311.830 48.226,312.027 48.258,312.209 48.356 C 312.537 48.531,312.537 48.528,312.229 48.105 C 311.845 47.579,311.667 47.554,311.667 48.028 M347.048 48.750 C 347.049 49.208,347.081 49.376,347.120 49.123 C 347.158 48.869,347.157 48.494,347.117 48.289 C 347.078 48.084,347.046 48.292,347.048 48.750 M183.698 49.673 C 183.497 49.860,183.333 50.061,183.333 50.119 C 183.333 50.177,183.502 50.071,183.708 49.884 C 183.915 49.696,184.196 49.501,184.333 49.451 C 184.549 49.372,184.547 49.358,184.323 49.346 C 184.180 49.339,183.899 49.486,183.698 49.673 M181.974 51.042 C 181.489 51.453,181.084 52.139,181.236 52.292 C 181.290 52.345,181.333 52.314,181.333 52.222 C 181.333 52.131,181.446 52.043,181.583 52.028 C 181.721 52.012,181.946 51.987,182.083 51.972 C 182.221 51.957,182.341 51.863,182.350 51.764 C 182.428 50.914,182.446 50.667,182.433 50.667 C 182.424 50.668,182.217 50.837,181.974 51.042 M373.219 50.964 C 372.982 51.115,372.620 52.009,372.745 52.134 C 372.794 52.183,372.833 52.130,372.833 52.018 C 372.833 51.906,372.895 51.852,372.971 51.899 C 373.046 51.945,373.102 51.822,373.096 51.625 C 373.088 51.403,373.242 51.185,373.500 51.053 C 373.729 50.935,373.804 50.838,373.667 50.838 C 373.529 50.838,373.328 50.895,373.219 50.964 M263.636 52.089 C 263.209 52.322,262.870 52.925,263.060 53.116 C 263.110 53.165,263.200 53.010,263.260 52.770 C 263.320 52.530,263.422 52.333,263.486 52.333 C 263.550 52.333,263.749 52.223,263.926 52.089 C 264.338 51.777,264.211 51.777,263.636 52.089 M348.485 53.139 C 348.575 53.307,348.779 53.550,348.939 53.680 C 349.119 53.827,349.079 53.710,348.834 53.375 C 348.396 52.777,348.232 52.666,348.485 53.139 M279.333 53.052 C 279.333 53.081,279.574 53.325,279.869 53.594 C 280.163 53.863,280.305 53.953,280.183 53.794 C 280.062 53.635,280.006 53.391,280.059 53.252 C 280.130 53.069,280.044 53.000,279.745 53.000 C 279.518 53.000,279.333 53.023,279.333 53.052 M180.526 53.458 C 180.336 53.619,180.136 53.975,180.082 54.250 L 179.984 54.750 180.225 54.230 C 180.357 53.944,180.640 53.587,180.853 53.438 C 181.066 53.289,181.157 53.167,181.056 53.167 C 180.954 53.167,180.715 53.298,180.526 53.458 M281.998 54.609 C 282.225 54.870,282.478 55.158,282.560 55.250 C 282.641 55.342,282.622 55.251,282.518 55.048 C 282.414 54.846,282.349 54.585,282.373 54.469 C 282.397 54.353,282.229 54.230,282.000 54.196 L 281.583 54.135 281.998 54.609 M199.667 54.540 C 199.667 54.906,200.265 55.245,200.432 54.975 C 200.504 54.859,200.479 54.827,200.370 54.894 C 200.271 54.955,200.072 54.838,199.928 54.632 C 199.719 54.334,199.667 54.316,199.667 54.540 M262.219 54.631 C 261.978 54.784,261.621 55.677,261.749 55.805 C 261.800 55.855,261.971 55.759,262.129 55.592 C 262.287 55.424,262.323 55.339,262.208 55.403 C 261.896 55.578,261.953 55.080,262.276 54.812 C 262.427 54.686,262.583 54.608,262.623 54.639 C 262.662 54.669,262.738 54.651,262.792 54.597 C 262.934 54.455,262.451 54.483,262.219 54.631 M220.740 55.355 C 220.387 55.730,220.343 55.830,220.583 55.711 C 220.767 55.620,221.010 55.579,221.125 55.620 C 221.240 55.661,221.333 55.619,221.333 55.528 C 221.333 55.436,221.379 55.242,221.434 55.097 C 221.598 54.670,221.266 54.794,220.740 55.355 M179.095 55.929 C 178.951 56.073,178.833 56.273,178.833 56.373 C 178.833 56.473,178.853 56.524,178.877 56.486 C 178.901 56.448,179.062 56.248,179.236 56.042 C 179.595 55.615,179.492 55.532,179.095 55.929 M201.153 55.894 C 201.375 56.167,202.000 56.580,202.000 56.454 C 202.000 56.422,201.756 56.218,201.458 55.999 C 201.123 55.754,201.007 55.714,201.153 55.894 M220.167 56.407 C 220.167 56.918,220.262 56.959,220.382 56.500 C 220.430 56.317,220.401 56.125,220.318 56.074 C 220.235 56.022,220.167 56.172,220.167 56.407 M284.365 56.950 C 284.563 57.161,284.749 57.333,284.779 57.333 C 284.809 57.333,284.833 57.161,284.833 56.950 C 284.833 56.653,284.740 56.567,284.419 56.567 L 284.005 56.567 284.365 56.950 M260.898 57.422 C 260.746 57.654,260.662 57.885,260.712 57.934 C 260.762 57.984,260.849 57.880,260.905 57.703 C 260.961 57.526,261.174 57.300,261.379 57.202 C 261.671 57.061,261.689 57.020,261.462 57.011 C 261.304 57.005,261.050 57.190,260.898 57.422 M243.574 57.835 C 243.641 58.063,243.870 58.400,244.083 58.583 C 244.297 58.767,244.507 59.104,244.550 59.333 C 244.594 59.563,244.619 59.319,244.607 58.792 C 244.586 57.910,244.503 57.749,244.107 57.819 C 244.029 57.834,243.849 57.749,243.708 57.632 C 243.486 57.447,243.468 57.474,243.574 57.835 M219.725 58.166 C 219.216 58.371,218.696 59.833,219.133 59.833 C 219.226 59.833,219.260 59.672,219.208 59.474 C 219.147 59.239,219.177 59.153,219.296 59.227 C 219.395 59.288,219.531 59.251,219.598 59.144 C 219.673 59.022,219.646 58.993,219.526 59.067 C 219.263 59.230,219.278 58.754,219.542 58.535 C 219.656 58.439,219.823 58.361,219.912 58.360 C 220.002 58.359,220.102 58.278,220.135 58.179 C 220.203 57.973,220.202 57.973,219.725 58.166 M359.292 58.110 C 359.406 58.157,359.500 58.293,359.500 58.413 C 359.500 58.654,359.989 58.900,360.149 58.740 C 360.275 58.613,359.531 57.995,359.273 58.013 C 359.151 58.022,359.157 58.056,359.292 58.110 M351.324 59.216 C 352.006 59.949,351.974 59.937,351.874 59.419 C 351.831 59.191,351.729 59.045,351.648 59.095 C 351.566 59.145,351.494 59.051,351.487 58.885 C 351.479 58.698,351.441 58.665,351.387 58.799 C 351.318 58.971,351.247 58.973,351.025 58.806 C 350.874 58.691,351.008 58.876,351.324 59.216 M369.552 59.464 C 369.179 59.702,368.856 60.833,369.161 60.833 C 369.250 60.833,369.275 60.709,369.216 60.556 C 369.148 60.378,369.175 60.319,369.293 60.392 C 369.394 60.454,369.531 60.418,369.598 60.310 C 369.673 60.188,369.646 60.160,369.526 60.234 C 369.420 60.299,369.333 60.288,369.333 60.208 C 369.333 59.989,369.719 59.549,370.000 59.449 C 370.222 59.370,370.222 59.358,370.000 59.349 C 369.863 59.343,369.661 59.395,369.552 59.464 M203.333 59.971 C 203.333 60.133,204.053 60.833,204.219 60.833 C 204.365 60.833,204.369 60.091,204.224 59.946 C 204.163 59.886,204.013 59.920,203.890 60.022 C 203.726 60.158,203.667 60.158,203.667 60.020 C 203.667 59.918,203.592 59.833,203.500 59.833 C 203.408 59.833,203.333 59.895,203.333 59.971 M268.274 60.542 C 268.148 61.024,268.148 60.999,268.283 61.004 C 268.346 61.007,268.424 60.819,268.455 60.588 C 268.525 60.066,268.407 60.035,268.274 60.542 M177.558 62.500 C 177.558 63.279,177.587 63.598,177.622 63.208 C 177.657 62.819,177.657 62.181,177.622 61.792 C 177.587 61.402,177.558 61.721,177.558 62.500 M260.407 66.167 C 260.407 68.962,260.430 70.106,260.458 68.708 C 260.486 67.310,260.486 65.023,260.458 63.625 C 260.430 62.227,260.407 63.371,260.407 66.167 M352.000 61.343 C 352.000 61.440,352.087 61.466,352.192 61.401 C 352.310 61.328,352.340 61.355,352.268 61.471 C 352.113 61.721,352.450 62.333,352.742 62.333 C 352.869 62.333,353.008 62.427,353.052 62.542 C 353.095 62.656,353.121 62.487,353.108 62.167 C 353.080 61.478,352.000 60.675,352.000 61.343 M244.833 61.627 C 244.833 61.818,245.286 62.333,245.454 62.333 C 245.508 62.333,245.410 62.165,245.236 61.958 C 245.062 61.752,244.901 61.552,244.877 61.514 C 244.853 61.476,244.833 61.527,244.833 61.627 M353.245 63.957 C 353.389 64.528,353.655 64.860,353.865 64.731 C 353.953 64.676,353.862 64.458,353.662 64.245 C 353.462 64.032,353.348 63.777,353.409 63.679 C 353.470 63.581,353.432 63.500,353.325 63.500 C 353.196 63.500,353.169 63.654,353.245 63.957 M367.705 64.667 C 367.705 64.987,367.740 65.119,367.782 64.958 C 367.823 64.798,367.823 64.535,367.782 64.375 C 367.740 64.215,367.705 64.346,367.705 64.667 M184.905 65.678 C 184.905 65.981,184.928 65.991,185.099 65.756 C 185.304 65.476,185.611 65.852,185.425 66.154 C 185.382 66.222,185.457 66.278,185.591 66.278 C 185.910 66.278,185.900 65.924,185.571 65.595 C 185.207 65.231,184.905 65.268,184.905 65.678 M366.747 65.720 C 366.675 65.896,366.706 66.105,366.821 66.220 C 366.975 66.372,366.992 66.344,366.898 66.098 C 366.817 65.884,366.837 65.816,366.960 65.892 C 367.061 65.954,367.198 65.918,367.264 65.810 C 367.336 65.694,367.313 65.660,367.207 65.725 C 367.109 65.786,366.993 65.741,366.950 65.626 C 366.898 65.485,366.831 65.516,366.747 65.720 M177.525 67.782 C 177.511 68.533,177.556 69.182,177.625 69.225 C 177.694 69.267,177.729 68.841,177.703 68.276 C 177.625 66.551,177.551 66.346,177.525 67.782 M354.641 67.279 C 355.118 68.188,355.751 68.459,355.462 67.629 C 355.359 67.334,355.243 67.189,355.203 67.306 C 355.150 67.466,355.045 67.444,354.792 67.219 C 354.459 66.923,354.456 66.925,354.641 67.279 M226.278 67.930 C 226.326 68.054,226.414 68.147,226.474 68.135 C 226.709 68.089,227.185 68.385,227.032 68.482 C 226.935 68.543,226.963 68.669,227.102 68.798 C 227.410 69.084,227.430 68.518,227.125 68.136 C 226.847 67.788,226.160 67.621,226.278 67.930 M245.257 68.169 C 244.986 68.435,244.811 68.700,244.868 68.757 C 244.926 68.815,245.060 68.700,245.166 68.501 C 245.272 68.303,245.450 68.176,245.562 68.219 C 245.674 68.262,245.776 68.155,245.789 67.982 C 245.818 67.597,245.853 67.584,245.257 68.169 M365.776 68.138 C 365.624 68.306,365.503 68.550,365.506 68.680 C 365.509 68.814,365.603 68.752,365.723 68.536 C 365.839 68.327,365.998 68.215,366.077 68.286 C 366.156 68.358,366.159 68.311,366.083 68.180 C 365.980 68.004,366.016 67.971,366.223 68.050 C 366.375 68.108,366.500 68.084,366.500 67.995 C 366.500 67.728,366.070 67.813,365.776 68.138 M364.000 69.797 C 364.000 69.998,364.143 70.106,364.442 70.131 L 364.885 70.167 364.500 69.834 C 364.030 69.426,364.000 69.424,364.000 69.797 M177.751 70.035 C 177.977 70.810,178.575 71.127,178.637 70.504 C 178.699 69.882,178.721 69.913,178.112 69.767 C 177.680 69.663,177.649 69.686,177.751 70.035 M219.167 71.270 C 219.167 71.361,219.277 71.582,219.411 71.760 C 219.546 71.938,219.656 72.008,219.656 71.917 C 219.656 71.825,219.546 71.604,219.411 71.426 C 219.277 71.249,219.167 71.178,219.167 71.270 M244.232 71.663 C 244.038 71.741,243.834 71.925,243.778 72.071 C 243.701 72.270,243.800 72.245,244.171 71.970 C 244.829 71.484,244.842 71.417,244.232 71.663 M252.285 72.056 C 252.346 72.156,252.276 72.180,252.111 72.117 C 251.958 72.058,251.833 72.083,251.833 72.172 C 251.833 72.409,252.263 72.368,252.477 72.111 C 252.616 71.943,252.602 71.889,252.421 71.889 C 252.289 71.889,252.228 71.964,252.285 72.056 M268.901 72.859 C 268.822 72.987,268.856 73.006,269.003 72.915 C 269.167 72.813,269.195 72.860,269.111 73.098 C 269.012 73.381,269.023 73.387,269.210 73.147 C 269.377 72.934,269.461 72.921,269.614 73.085 C 269.738 73.217,269.750 73.350,269.648 73.452 C 269.547 73.553,269.582 73.611,269.744 73.611 C 270.075 73.611,270.072 73.262,269.738 72.929 C 269.429 72.620,269.067 72.590,268.901 72.859 M243.333 73.240 C 243.333 73.751,243.428 73.792,243.548 73.333 C 243.596 73.150,243.567 72.958,243.484 72.907 C 243.401 72.856,243.333 73.006,243.333 73.240 M260.502 73.017 C 260.497 73.582,260.867 74.295,261.258 74.473 C 261.649 74.651,261.667 74.634,261.667 74.082 C 261.667 73.586,261.615 73.510,261.302 73.544 C 261.057 73.570,260.866 73.446,260.721 73.167 C 260.584 72.902,260.504 72.847,260.502 73.017 M220.169 73.792 C 220.171 74.125,220.212 74.186,220.320 74.015 C 220.402 73.886,220.431 73.680,220.383 73.557 C 220.248 73.204,220.166 73.294,220.169 73.792 M371.708 73.618 C 371.461 73.665,371.333 73.809,371.333 74.041 C 371.333 74.386,371.339 74.386,371.750 74.000 C 372.100 73.671,372.285 73.435,372.125 73.523 C 372.102 73.535,371.915 73.578,371.708 73.618 M178.833 73.792 C 178.833 74.221,179.471 74.756,179.697 74.517 C 179.819 74.387,179.831 74.333,179.722 74.394 C 179.614 74.454,179.371 74.305,179.180 74.062 C 178.989 73.820,178.833 73.699,178.833 73.792 M242.708 74.005 C 242.502 74.088,242.333 74.285,242.333 74.443 C 242.333 74.701,242.355 74.704,242.542 74.469 C 242.656 74.326,242.900 74.126,243.083 74.026 C 243.483 73.807,243.235 73.793,242.708 74.005 M220.333 74.433 C 220.333 74.480,220.555 74.755,220.825 75.045 C 221.307 75.560,221.597 75.611,221.418 75.149 C 221.330 74.923,220.333 74.265,220.333 74.433 M251.229 75.254 C 250.942 75.576,250.774 75.880,250.854 75.929 C 250.934 75.979,251.000 75.940,251.000 75.843 C 251.000 75.746,251.094 75.685,251.208 75.708 C 251.323 75.731,251.398 75.656,251.375 75.542 C 251.352 75.427,251.421 75.333,251.528 75.333 C 251.635 75.333,251.673 75.284,251.613 75.224 C 251.552 75.163,251.586 75.013,251.689 74.890 C 252.085 74.413,251.722 74.700,251.229 75.254 M241.240 75.240 C 240.923 75.475,240.923 75.486,241.232 75.781 C 241.405 75.947,241.498 75.995,241.437 75.887 C 241.377 75.778,241.405 75.642,241.500 75.583 C 241.595 75.525,241.621 75.394,241.559 75.293 C 241.486 75.175,241.544 75.148,241.723 75.216 C 241.875 75.275,242.000 75.250,242.000 75.161 C 242.000 74.925,241.611 74.965,241.240 75.240 M199.716 75.625 C 199.556 75.877,199.348 76.138,199.254 76.206 C 199.144 76.285,199.154 76.329,199.282 76.331 C 199.391 76.332,199.527 76.257,199.585 76.164 C 199.643 76.071,199.759 76.037,199.843 76.089 C 199.927 76.141,199.950 76.065,199.894 75.919 C 199.830 75.750,199.872 75.671,200.011 75.702 C 200.132 75.728,200.259 75.619,200.294 75.458 C 200.392 75.011,200.043 75.112,199.716 75.625 M189.667 75.903 C 189.667 76.048,189.785 76.167,189.931 76.167 C 190.225 76.167,190.174 75.808,189.865 75.705 C 189.756 75.669,189.667 75.758,189.667 75.903 M232.667 76.695 C 232.988 77.014,233.271 77.261,233.296 77.245 C 233.462 77.135,233.040 76.610,232.605 76.385 L 232.084 76.116 232.667 76.695 M239.838 76.327 C 239.703 76.412,239.651 76.540,239.722 76.611 C 239.793 76.682,239.904 76.660,239.967 76.562 C 240.031 76.464,240.196 76.340,240.333 76.288 C 240.556 76.204,240.556 76.192,240.333 76.182 C 240.196 76.177,239.973 76.242,239.838 76.327 M278.537 76.745 C 278.074 77.226,278.072 77.333,278.528 77.333 C 278.726 77.333,278.839 77.283,278.777 77.222 C 278.716 77.161,278.783 76.980,278.927 76.822 C 279.328 76.379,278.959 76.307,278.537 76.745 M370.565 76.738 C 370.510 76.881,370.398 76.957,370.316 76.906 C 370.234 76.855,370.167 76.893,370.167 76.990 C 370.167 77.229,370.374 77.212,370.743 76.942 C 370.958 76.785,370.992 76.681,370.857 76.598 C 370.750 76.532,370.620 76.594,370.565 76.738 M239.243 77.011 C 239.090 77.259,239.268 77.394,239.587 77.272 C 239.734 77.215,239.808 77.093,239.751 77.001 C 239.616 76.783,239.382 76.787,239.243 77.011 M261.833 76.974 C 261.833 77.177,262.762 78.016,262.868 77.909 C 263.054 77.724,262.791 77.147,262.561 77.235 C 262.436 77.283,262.333 77.258,262.333 77.179 C 262.333 77.100,262.221 76.992,262.083 76.940 C 261.946 76.887,261.833 76.902,261.833 76.974 M249.708 77.295 C 249.418 77.343,249.333 77.468,249.333 77.851 C 249.333 78.292,249.369 78.326,249.663 78.169 C 250.401 77.773,250.432 77.175,249.708 77.295 M263.107 78.663 C 263.243 78.937,263.443 79.213,263.552 79.279 C 263.663 79.345,263.648 79.272,263.518 79.111 C 263.390 78.954,263.330 78.781,263.385 78.726 C 263.480 78.631,263.112 78.167,262.941 78.167 C 262.896 78.167,262.970 78.390,263.107 78.663 M359.833 78.589 C 359.833 78.713,359.914 78.863,360.012 78.924 C 360.110 78.985,360.251 79.195,360.326 79.392 C 360.435 79.678,360.460 79.626,360.449 79.136 C 360.435 78.544,359.833 78.009,359.833 78.589 M222.833 78.898 C 222.833 79.189,223.275 79.563,223.393 79.371 C 223.443 79.291,223.337 79.101,223.158 78.948 C 222.908 78.734,222.833 78.722,222.833 78.898 M223.672 79.458 C 223.682 79.688,224.134 80.189,224.208 80.052 C 224.248 79.977,224.142 79.785,223.974 79.625 C 223.805 79.465,223.669 79.390,223.672 79.458 M304.514 80.486 C 304.528 81.052,304.536 81.060,304.663 80.638 C 304.737 80.393,304.840 80.124,304.891 80.041 C 304.943 79.957,304.876 79.889,304.743 79.889 C 304.573 79.889,304.504 80.068,304.514 80.486 M224.251 80.332 C 224.195 80.423,224.415 80.624,224.739 80.779 C 225.064 80.933,225.368 81.178,225.415 81.322 C 225.461 81.466,225.730 81.715,226.013 81.875 C 226.611 82.214,227.036 82.268,226.600 81.950 C 226.437 81.830,226.329 81.587,226.360 81.408 C 226.402 81.167,226.310 81.071,226.000 81.035 C 225.386 80.965,224.329 80.476,224.431 80.310 C 224.480 80.231,224.482 80.167,224.436 80.167 C 224.391 80.167,224.307 80.241,224.251 80.332 M184.264 80.978 C 184.215 81.057,184.315 81.250,184.487 81.405 C 184.876 81.757,185.112 81.469,184.740 81.097 C 184.436 80.793,184.386 80.780,184.264 80.978 M360.333 81.284 C 360.333 81.440,360.093 81.815,359.800 82.117 C 359.417 82.513,359.318 82.718,359.448 82.848 C 359.578 82.978,359.665 82.971,359.757 82.822 C 359.839 82.689,359.816 82.657,359.692 82.734 C 359.587 82.799,359.500 82.774,359.500 82.677 C 359.500 82.521,359.850 82.424,360.208 82.480 C 360.277 82.491,360.338 82.481,360.344 82.458 C 360.431 82.106,360.493 81.000,360.425 81.000 C 360.375 81.000,360.333 81.128,360.333 81.284 M265.503 81.266 C 265.499 81.540,266.118 82.047,266.232 81.863 C 266.286 81.776,266.218 81.612,266.081 81.498 C 265.945 81.385,265.832 81.358,265.831 81.438 C 265.829 81.518,265.756 81.471,265.667 81.333 C 265.578 81.196,265.504 81.165,265.503 81.266 M141.000 82.295 C 141.000 82.704,141.436 83.286,141.611 83.111 C 141.687 83.035,141.614 82.874,141.449 82.753 C 141.284 82.632,141.221 82.507,141.308 82.475 C 141.396 82.443,141.362 82.320,141.234 82.202 C 141.040 82.024,141.000 82.040,141.000 82.295 M285.000 82.165 C 285.000 82.457,286.004 83.350,286.198 83.231 C 286.304 83.165,286.297 83.064,286.181 82.948 C 286.082 82.848,286.000 82.632,286.000 82.467 C 286.000 82.302,285.894 82.167,285.764 82.167 C 285.634 82.167,285.409 82.121,285.264 82.066 C 285.113 82.008,285.000 82.051,285.000 82.165 M186.333 82.419 C 186.333 82.665,187.251 83.334,187.583 83.330 C 187.675 83.329,187.652 83.266,187.533 83.191 C 187.413 83.115,187.329 82.985,187.344 82.901 C 187.445 82.364,187.308 82.167,186.833 82.167 C 186.498 82.167,186.333 82.250,186.333 82.419 M267.498 82.748 C 268.160 83.431,268.266 83.417,267.905 82.694 C 267.734 82.350,267.519 82.167,267.288 82.167 C 266.968 82.167,266.987 82.221,267.498 82.748 M359.167 83.573 C 359.167 84.084,359.262 84.125,359.382 83.667 C 359.430 83.484,359.401 83.292,359.318 83.240 C 359.235 83.189,359.167 83.339,359.167 83.573 M190.750 83.979 C 191.342 84.546,191.399 84.541,191.123 83.947 C 191.001 83.683,190.781 83.502,190.583 83.501 C 190.289 83.501,190.308 83.556,190.750 83.979 M240.707 83.611 C 240.592 83.657,240.537 83.759,240.585 83.836 C 240.633 83.914,240.504 84.095,240.299 84.239 C 240.094 84.382,240.013 84.500,240.120 84.500 C 240.226 84.500,240.361 84.424,240.418 84.331 C 240.476 84.237,240.604 84.212,240.704 84.273 C 240.805 84.335,240.837 84.308,240.778 84.211 C 240.719 84.116,240.820 83.999,241.002 83.951 C 241.184 83.904,241.333 83.783,241.333 83.682 C 241.333 83.494,241.072 83.464,240.707 83.611 M279.289 83.708 C 279.159 84.048,279.159 84.168,279.292 84.150 C 279.360 84.141,279.398 84.066,279.375 83.983 C 279.352 83.901,279.408 83.833,279.500 83.833 C 279.592 83.833,279.667 83.758,279.667 83.667 C 279.667 83.429,279.384 83.460,279.289 83.708 M197.667 84.500 L 197.250 84.633 197.708 84.650 C 197.960 84.659,198.167 84.592,198.167 84.500 C 198.167 84.408,198.148 84.341,198.125 84.350 C 198.102 84.359,197.896 84.427,197.667 84.500 M233.333 84.529 C 233.333 84.605,233.558 84.667,233.833 84.667 C 234.108 84.667,234.333 84.638,234.333 84.602 C 234.333 84.567,234.108 84.505,233.833 84.464 C 233.558 84.424,233.333 84.453,233.333 84.529 M272.500 84.523 C 272.500 84.602,272.688 84.667,272.917 84.667 C 273.146 84.667,273.333 84.638,273.333 84.603 C 273.333 84.568,273.146 84.503,272.917 84.459 C 272.688 84.415,272.500 84.444,272.500 84.523 M277.167 84.500 L 276.750 84.633 277.208 84.650 C 277.460 84.659,277.667 84.592,277.667 84.500 C 277.667 84.408,277.648 84.341,277.625 84.350 C 277.602 84.359,277.396 84.427,277.167 84.500 M358.330 85.087 C 358.214 85.227,358.167 85.390,358.226 85.448 C 358.285 85.507,358.333 85.466,358.333 85.356 C 358.333 85.246,358.502 85.088,358.708 85.005 C 358.962 84.903,358.996 84.851,358.812 84.844 C 358.663 84.838,358.446 84.948,358.330 85.087 M356.316 89.976 C 356.078 90.219,355.830 90.565,355.765 90.747 C 355.699 90.934,355.903 90.788,356.233 90.414 C 357.036 89.505,357.097 89.184,356.316 89.976 M355.500 92.667 C 355.500 93.308,355.556 93.833,355.625 93.833 C 355.694 93.833,355.750 93.308,355.750 92.667 C 355.750 92.025,355.694 91.500,355.625 91.500 C 355.556 91.500,355.500 92.025,355.500 92.667 M355.667 94.463 C 355.667 94.730,356.196 95.335,356.347 95.241 C 356.434 95.188,356.462 95.073,356.408 94.986 C 356.354 94.899,356.240 94.871,356.155 94.924 C 356.015 95.010,355.929 94.782,355.980 94.458 C 355.991 94.390,355.925 94.333,355.833 94.333 C 355.742 94.333,355.667 94.392,355.667 94.463 M122.500 104.526 C 122.500 104.874,122.510 104.876,122.833 104.583 C 123.017 104.417,123.167 104.256,123.167 104.224 C 123.167 104.193,123.017 104.167,122.833 104.167 C 122.603 104.167,122.500 104.278,122.500 104.526 M30.375 108.208 C 30.742 108.762,31.167 108.791,31.167 108.262 C 31.167 107.893,31.094 107.833,30.646 107.833 C 30.144 107.833,30.135 107.846,30.375 108.208 " stroke="none" fill="#84d2da" fill-rule="evenodd"></path><path id="path1" d="M58.000 61.000 L 58.000 89.667 61.083 89.667 L 64.167 89.667 64.169 77.125 C 64.171 69.515,64.234 64.485,64.330 64.333 C 64.467 64.116,66.038 64.077,76.494 64.036 L 88.500 63.989 88.500 62.029 L 88.500 60.069 87.748 59.868 C 87.196 59.720,84.061 59.667,75.992 59.667 C 66.366 59.667,64.978 59.635,64.894 59.417 C 64.841 59.279,64.701 59.167,64.583 59.167 C 64.186 59.167,64.167 58.661,64.167 48.066 L 64.167 37.492 64.594 37.329 C 64.859 37.228,70.179 37.167,78.594 37.167 L 92.167 37.167 92.167 34.750 L 92.167 32.333 75.083 32.333 L 58.000 32.333 58.000 61.000 " stroke="none" fill="#fcfcfc" fill-rule="evenodd"></path><path id="path2" d="M57.417 31.000 C 57.360 31.092,57.099 31.167,56.836 31.167 C 56.518 31.167,56.242 31.314,56.012 31.606 L 55.667 32.045 55.669 60.897 C 55.672 93.095,55.546 90.255,57.000 91.018 C 57.915 91.499,57.922 91.500,61.009 91.500 L 64.101 91.500 64.634 90.950 L 65.167 90.401 65.167 78.367 C 65.167 71.749,65.185 66.316,65.208 66.296 C 65.231 66.275,70.612 66.219,77.164 66.171 L 89.079 66.083 89.331 65.583 C 89.757 64.739,89.697 58.557,89.260 58.237 C 88.987 58.037,87.060 58.000,77.051 58.000 L 65.167 58.000 65.167 48.417 L 65.167 38.833 65.550 38.833 C 65.761 38.833,66.005 38.762,66.092 38.675 C 66.188 38.578,71.544 38.497,79.841 38.467 C 92.563 38.420,93.461 38.398,93.886 38.119 L 94.341 37.821 94.295 34.708 L 94.250 31.596 93.833 31.398 C 93.604 31.290,93.149 31.118,92.822 31.017 C 92.029 30.772,57.568 30.755,57.417 31.000 M92.958 31.590 C 93.822 31.951,93.828 31.973,93.828 34.750 C 93.828 38.499,95.701 38.067,79.016 38.167 L 65.083 38.250 65.037 47.917 C 65.012 53.233,65.032 57.752,65.082 57.958 L 65.173 58.333 76.948 58.333 C 87.672 58.333,88.751 58.358,89.029 58.609 C 89.399 58.945,89.492 64.057,89.139 64.719 C 88.718 65.512,89.074 65.489,76.813 65.495 L 65.208 65.500 65.104 66.021 C 65.047 66.307,65.000 71.786,65.000 78.195 L 65.000 89.848 64.579 90.270 L 64.157 90.691 60.787 90.637 C 57.515 90.585,57.401 90.572,56.875 90.177 L 56.333 89.771 56.333 60.994 C 56.333 29.126,56.237 31.958,57.337 31.519 C 58.102 31.214,92.220 31.281,92.958 31.590 M172.632 34.355 C 172.462 34.460,172.474 34.545,172.689 34.760 C 172.898 34.970,172.990 34.984,173.089 34.824 C 173.173 34.689,173.150 34.657,173.026 34.734 C 172.911 34.805,172.833 34.745,172.833 34.583 C 172.833 34.435,172.903 34.357,172.988 34.410 C 173.074 34.462,173.183 34.442,173.231 34.364 C 173.342 34.185,172.917 34.179,172.632 34.355 M326.712 47.500 C 326.712 47.913,326.745 48.081,326.784 47.875 C 326.824 47.669,326.824 47.331,326.784 47.125 C 326.745 46.919,326.712 47.087,326.712 47.500 M273.833 53.222 C 273.833 53.344,273.933 53.444,274.056 53.444 C 274.178 53.444,274.278 53.344,274.278 53.222 C 274.278 53.100,274.178 53.000,274.056 53.000 C 273.933 53.000,273.833 53.100,273.833 53.222 M326.746 67.000 C 326.746 74.104,326.767 77.010,326.792 73.458 C 326.817 69.906,326.817 64.094,326.792 60.542 C 326.767 56.990,326.746 59.896,326.746 67.000 M185.000 66.240 C 185.231 66.538,185.225 66.553,184.917 66.438 C 184.649 66.338,184.625 66.355,184.792 66.523 C 184.936 66.669,185.053 66.680,185.174 66.560 C 185.294 66.439,185.256 66.314,185.049 66.151 C 184.771 65.933,184.767 65.939,185.000 66.240 M226.212 68.675 C 226.187 69.008,226.408 69.117,226.572 68.852 C 226.622 68.771,226.567 68.625,226.450 68.527 C 226.289 68.394,226.230 68.431,226.212 68.675 M241.722 75.925 C 241.722 76.050,241.810 76.186,241.917 76.227 C 242.024 76.268,242.111 76.199,242.111 76.075 C 242.111 75.950,242.024 75.814,241.917 75.773 C 241.810 75.732,241.722 75.801,241.722 75.925 M193.208 77.448 C 193.369 77.490,193.631 77.490,193.792 77.448 C 193.952 77.406,193.821 77.372,193.500 77.372 C 193.179 77.372,193.048 77.406,193.208 77.448 " stroke="none" fill="#40bcc4" fill-rule="evenodd"></path><path id="path3" d="M57.708 32.037 L 57.333 32.218 57.333 60.909 C 57.333 83.002,57.379 89.646,57.533 89.800 C 57.816 90.082,64.018 90.082,64.300 89.800 C 64.452 89.648,64.500 86.709,64.501 77.592 C 64.501 65.915,64.510 65.568,64.832 65.042 L 65.162 64.500 76.798 64.500 C 85.625 64.500,88.482 64.452,88.633 64.300 C 88.912 64.021,88.912 59.312,88.633 59.033 C 88.482 58.882,85.634 58.833,76.837 58.833 C 66.611 58.833,65.197 58.803,64.870 58.574 L 64.500 58.314 64.500 48.266 C 64.500 38.744,64.516 38.204,64.805 37.942 C 65.083 37.691,66.277 37.667,78.547 37.667 C 88.389 37.667,92.098 37.615,92.409 37.473 L 92.833 37.280 92.833 34.750 L 92.833 32.220 92.409 32.027 C 91.825 31.761,58.260 31.771,57.708 32.037 M92.167 34.750 L 92.167 37.167 78.594 37.167 C 70.179 37.167,64.859 37.228,64.594 37.329 L 64.167 37.492 64.167 48.066 C 64.167 58.661,64.186 59.167,64.583 59.167 C 64.701 59.167,64.841 59.279,64.894 59.417 C 64.978 59.635,66.366 59.667,75.992 59.667 C 84.061 59.667,87.196 59.720,87.748 59.868 L 88.500 60.069 88.500 62.029 L 88.500 63.989 76.494 64.036 C 66.038 64.077,64.467 64.116,64.330 64.333 C 64.234 64.485,64.171 69.515,64.169 77.125 L 64.167 89.667 61.083 89.667 L 58.000 89.667 58.000 61.000 L 58.000 32.333 75.083 32.333 L 92.167 32.333 92.167 34.750 " stroke="none" fill="#f4fcfc" fill-rule="evenodd"></path><path id="path4" d="M31.167 13.417 C 31.167 13.959,31.129 14.002,30.625 14.022 C 29.295 14.077,28.999 14.113,28.878 14.233 C 28.751 14.361,28.727 14.444,28.688 14.913 C 28.676 15.049,28.460 15.211,28.208 15.272 C 27.639 15.412,27.506 15.604,27.503 16.292 C 27.501 16.640,27.418 16.833,27.270 16.833 C 27.143 16.833,26.845 17.088,26.608 17.399 L 26.177 17.965 26.177 60.982 C 26.177 84.642,26.231 104.000,26.297 104.001 C 26.363 104.002,26.544 104.227,26.701 104.501 C 26.857 104.775,27.100 105.000,27.242 105.000 C 27.421 105.000,27.501 105.165,27.503 105.542 C 27.505 106.151,27.717 106.572,28.036 106.606 C 28.154 106.618,28.344 106.637,28.458 106.647 C 28.573 106.658,28.667 106.884,28.667 107.149 C 28.667 107.735,28.885 107.833,30.180 107.833 L 31.167 107.833 31.167 108.417 L 31.167 109.000 75.000 109.000 L 118.833 109.000 118.833 108.417 C 118.833 107.857,118.859 107.832,119.458 107.813 C 120.105 107.791,120.764 107.745,121.125 107.695 C 121.240 107.679,121.317 107.610,121.298 107.542 C 121.210 107.227,121.512 106.321,121.672 106.420 C 121.769 106.480,121.972 106.428,122.123 106.306 C 122.354 106.118,122.375 106.120,122.256 106.317 C 122.159 106.478,122.177 106.513,122.312 106.430 C 122.420 106.363,122.498 106.220,122.485 106.112 C 122.331 104.867,122.509 104.167,122.980 104.167 C 123.243 104.167,123.543 104.065,123.646 103.942 C 123.912 103.621,123.911 18.212,123.645 17.891 C 123.543 17.767,123.243 17.667,122.980 17.667 C 122.523 17.667,122.293 16.712,122.484 15.613 C 122.498 15.537,122.431 15.523,122.337 15.581 C 122.244 15.639,122.167 15.598,122.167 15.490 C 122.167 15.377,122.027 15.331,121.833 15.382 C 121.453 15.481,121.346 15.363,121.299 14.793 C 121.254 14.255,121.031 14.087,120.333 14.066 C 118.770 14.020,118.833 14.048,118.833 13.417 L 118.833 12.833 75.000 12.833 L 31.167 12.833 31.167 13.417 M92.822 31.017 C 93.149 31.118,93.604 31.290,93.833 31.398 L 94.250 31.596 94.295 34.708 L 94.341 37.821 93.886 38.119 C 93.461 38.398,92.563 38.420,79.841 38.467 C 71.544 38.497,66.188 38.578,66.092 38.675 C 66.005 38.762,65.761 38.833,65.550 38.833 L 65.167 38.833 65.167 48.417 L 65.167 58.000 77.051 58.000 C 87.060 58.000,88.987 58.037,89.260 58.237 C 89.697 58.557,89.757 64.739,89.331 65.583 L 89.079 66.083 77.164 66.171 C 70.612 66.219,65.231 66.275,65.208 66.296 C 65.185 66.316,65.167 71.749,65.167 78.367 L 65.167 90.401 64.634 90.950 L 64.101 91.500 61.009 91.500 C 57.922 91.500,57.915 91.499,57.000 91.018 C 55.546 90.255,55.672 93.095,55.669 60.897 L 55.667 32.045 56.012 31.606 C 56.242 31.314,56.518 31.167,56.836 31.167 C 57.099 31.167,57.360 31.092,57.417 31.000 C 57.568 30.755,92.029 30.772,92.822 31.017 M286.333 31.328 C 286.333 31.411,286.152 31.445,285.930 31.405 C 285.519 31.330,285.000 31.690,285.000 32.049 C 285.000 32.155,285.117 32.074,285.259 31.870 C 285.402 31.667,285.606 31.500,285.713 31.500 C 285.820 31.500,285.682 31.706,285.406 31.958 C 284.766 32.543,284.833 31.548,284.833 40.381 C 284.833 47.829,284.822 48.095,284.519 48.095 C 284.331 48.095,284.238 48.009,284.287 47.881 C 284.332 47.763,284.286 47.667,284.184 47.667 C 284.083 47.667,283.991 47.498,283.981 47.292 C 283.965 46.991,283.946 46.977,283.883 47.220 C 283.809 47.506,283.792 47.507,283.595 47.237 C 283.417 46.995,283.112 46.954,281.612 46.972 L 279.839 46.994 279.582 46.497 C 279.440 46.224,279.240 46.000,279.137 46.000 C 279.033 46.000,279.091 46.164,279.266 46.364 L 279.583 46.727 279.142 46.405 C 278.900 46.228,278.739 46.021,278.785 45.945 C 278.832 45.869,278.730 45.821,278.560 45.839 C 278.389 45.857,278.175 45.857,278.083 45.839 C 277.391 45.701,275.462 45.823,275.220 46.020 C 274.990 46.206,274.962 46.207,275.071 46.025 C 275.292 45.658,274.645 46.065,274.212 46.565 C 273.858 46.974,273.759 46.994,272.129 46.997 C 269.504 47.001,268.961 47.161,269.135 47.875 C 269.199 48.140,268.509 48.300,267.792 48.186 C 267.723 48.176,267.667 48.250,267.667 48.351 C 267.667 48.453,267.545 48.489,267.396 48.432 C 267.105 48.320,266.667 48.593,266.667 48.886 C 266.667 48.984,266.780 48.918,266.919 48.740 C 267.154 48.440,267.158 48.450,266.976 48.875 C 266.867 49.130,266.648 49.333,266.483 49.333 C 266.320 49.333,266.137 49.413,266.076 49.511 C 266.016 49.609,265.857 49.648,265.724 49.597 C 265.589 49.545,265.528 49.577,265.585 49.669 C 265.641 49.759,265.609 49.833,265.515 49.833 C 265.421 49.833,265.383 49.936,265.431 50.062 C 265.545 50.358,265.025 50.879,264.729 50.765 C 264.603 50.717,264.500 50.754,264.500 50.848 C 264.500 50.943,264.426 50.974,264.335 50.918 C 264.245 50.862,264.210 50.919,264.259 51.046 C 264.409 51.437,264.027 52.213,263.739 52.102 C 263.572 52.038,263.524 52.071,263.602 52.197 C 263.680 52.323,263.632 52.356,263.463 52.291 C 263.276 52.219,263.226 52.273,263.282 52.488 C 263.324 52.650,263.240 52.903,263.095 53.048 C 262.932 53.211,262.895 53.352,262.999 53.416 C 263.183 53.530,262.921 54.158,262.600 54.372 C 262.475 54.456,262.486 54.496,262.635 54.497 C 262.755 54.499,262.804 54.579,262.745 54.675 C 262.672 54.793,262.558 54.784,262.392 54.647 C 262.196 54.484,262.158 54.490,262.199 54.680 C 262.227 54.810,262.164 54.900,262.059 54.881 C 261.946 54.859,261.902 54.978,261.953 55.170 C 262.000 55.350,262.123 55.454,262.227 55.402 C 262.331 55.350,262.240 55.463,262.024 55.654 C 261.801 55.850,261.671 56.105,261.725 56.245 C 261.777 56.380,261.704 56.605,261.564 56.745 C 261.370 56.939,261.362 57.001,261.530 57.003 C 261.692 57.004,261.685 57.047,261.500 57.167 C 261.150 57.393,260.957 57.372,261.105 57.125 C 261.191 56.983,261.140 56.990,260.949 57.145 C 260.794 57.271,260.668 57.459,260.669 57.562 C 260.671 57.665,260.753 57.637,260.852 57.500 C 261.001 57.292,261.015 57.301,260.932 57.555 C 260.878 57.723,260.833 57.896,260.833 57.940 C 260.833 57.984,260.774 57.983,260.701 57.938 C 260.535 57.835,260.538 57.698,260.506 65.836 C 260.476 73.245,260.589 74.187,261.424 73.494 C 261.633 73.320,261.667 73.480,261.667 74.646 C 261.667 75.468,261.734 76.000,261.839 76.000 C 261.951 76.000,261.942 76.129,261.815 76.367 C 261.667 76.645,261.666 76.750,261.812 76.799 C 261.919 76.834,262.099 76.956,262.213 77.070 C 262.327 77.184,262.513 77.246,262.626 77.208 C 262.818 77.144,262.910 77.460,262.846 77.958 C 262.831 78.073,262.897 78.167,262.993 78.167 C 263.088 78.167,263.167 78.246,263.167 78.343 C 263.167 78.440,263.093 78.474,263.002 78.418 C 262.903 78.357,262.882 78.433,262.949 78.608 C 263.018 78.787,263.087 78.823,263.128 78.700 C 263.164 78.590,263.266 78.500,263.353 78.500 C 263.450 78.500,263.446 78.623,263.343 78.816 C 263.041 79.380,263.616 79.667,264.030 79.158 C 264.213 78.934,264.304 78.860,264.232 78.995 C 263.897 79.625,264.304 80.833,264.851 80.833 C 265.248 80.833,265.731 81.260,265.591 81.487 C 265.424 81.758,265.897 81.963,267.042 82.117 C 267.544 82.185,267.718 82.308,267.923 82.740 C 268.063 83.036,268.269 83.286,268.381 83.295 C 270.016 83.438,270.339 83.531,270.805 83.997 C 271.124 84.317,271.419 84.464,271.648 84.420 C 271.842 84.383,272.000 84.423,272.000 84.510 C 272.000 84.596,272.112 84.667,272.250 84.667 C 272.387 84.667,272.500 84.597,272.500 84.512 C 272.500 84.416,272.707 84.416,273.041 84.512 C 273.739 84.712,276.427 84.712,277.126 84.512 C 277.459 84.416,277.667 84.416,277.667 84.512 C 277.667 84.597,277.779 84.667,277.917 84.667 C 278.054 84.667,278.167 84.584,278.167 84.482 C 278.167 84.381,278.274 84.339,278.406 84.389 C 278.537 84.440,278.682 84.392,278.726 84.282 C 278.786 84.134,278.810 84.137,278.820 84.292 C 278.827 84.406,278.912 84.500,279.007 84.500 C 279.103 84.500,279.166 84.406,279.148 84.292 C 279.039 83.606,279.382 83.417,280.775 83.398 C 282.192 83.379,283.167 82.975,283.167 82.405 C 283.167 82.262,283.333 82.167,283.583 82.167 C 283.813 82.167,284.001 82.073,284.003 81.958 C 284.004 81.819,284.057 81.833,284.162 81.999 C 284.290 82.201,284.359 82.207,284.533 82.033 C 284.689 81.878,284.696 81.787,284.559 81.701 C 284.422 81.616,284.430 81.528,284.587 81.382 C 284.824 81.162,285.091 81.551,284.907 81.848 C 284.856 81.932,284.912 82.007,285.032 82.017 C 285.907 82.083,286.185 82.129,286.280 82.224 C 286.340 82.284,286.313 82.333,286.220 82.333 C 285.905 82.333,286.085 83.213,286.424 83.333 C 286.977 83.528,290.333 83.504,290.333 83.304 C 290.333 83.181,290.402 83.183,290.557 83.311 C 290.680 83.414,290.821 83.456,290.871 83.407 C 290.921 83.357,291.176 83.300,291.439 83.280 L 291.917 83.243 291.960 57.540 C 292.003 32.452,291.996 31.830,291.686 31.520 C 291.342 31.176,286.333 30.997,286.333 31.328 M143.255 32.509 C 143.323 32.619,143.194 32.665,142.908 32.634 C 142.617 32.602,142.420 32.674,142.365 32.833 C 142.289 33.056,142.313 33.056,142.583 32.833 C 142.869 32.598,142.873 32.605,142.660 32.948 C 142.535 33.148,142.382 33.280,142.319 33.241 C 142.256 33.202,142.159 33.338,142.102 33.544 C 142.017 33.854,141.973 33.875,141.839 33.667 C 141.700 33.451,141.631 33.463,141.336 33.757 C 140.895 34.197,140.786 81.670,141.225 82.183 C 141.419 82.409,141.413 82.474,141.185 82.624 C 140.951 82.777,140.960 82.797,141.250 82.775 C 141.473 82.758,141.576 82.846,141.560 83.042 C 141.547 83.202,141.577 83.333,141.625 83.333 C 141.674 83.333,141.821 83.202,141.952 83.042 C 142.084 82.881,142.149 82.835,142.098 82.939 C 141.864 83.412,146.865 83.797,147.929 83.389 C 148.131 83.311,148.167 81.763,148.167 72.982 L 148.167 62.667 158.323 62.667 C 165.180 62.667,168.515 62.610,168.588 62.493 C 168.646 62.398,168.848 62.368,169.035 62.428 C 169.260 62.499,169.337 62.474,169.262 62.353 C 169.194 62.242,169.243 62.206,169.387 62.261 C 169.519 62.312,169.672 62.227,169.732 62.069 C 169.884 61.673,169.729 61.577,169.379 61.851 C 169.110 62.062,169.104 62.057,169.312 61.792 C 169.438 61.631,169.632 61.500,169.743 61.500 C 170.006 61.500,170.007 61.494,170.090 58.632 C 170.157 56.322,170.082 55.533,169.792 55.510 C 169.723 55.504,164.829 55.500,158.917 55.500 L 148.167 55.500 148.167 47.583 L 148.167 39.667 160.083 39.667 C 166.637 39.667,172.050 39.673,172.110 39.682 C 172.171 39.690,172.285 39.580,172.364 39.439 C 172.450 39.286,172.620 39.223,172.782 39.285 C 172.963 39.355,173.015 39.325,172.935 39.197 C 172.860 39.075,172.903 39.037,173.053 39.095 C 173.305 39.191,173.566 38.741,173.407 38.485 C 173.356 38.402,173.378 38.333,173.458 38.333 C 173.766 38.333,173.662 34.106,173.346 33.811 C 173.164 33.640,172.965 33.589,172.813 33.675 C 172.630 33.777,172.562 33.701,172.534 33.363 C 172.514 33.118,172.423 32.892,172.332 32.861 C 172.241 32.831,172.167 32.699,172.167 32.569 C 172.167 32.336,171.969 32.254,171.804 32.419 C 171.692 32.530,143.808 32.530,143.696 32.419 C 143.533 32.256,143.148 32.334,143.255 32.509 M306.614 32.550 C 306.678 32.654,306.537 32.673,306.233 32.603 C 305.879 32.520,305.817 32.535,306.000 32.659 C 306.220 32.808,306.131 32.901,305.809 32.859 C 305.749 32.851,305.737 32.982,305.781 33.149 C 305.863 33.463,305.437 33.751,305.152 33.574 C 304.930 33.437,304.419 33.870,304.403 34.208 C 304.365 35.000,304.300 35.150,303.875 35.423 L 303.417 35.718 303.734 35.359 C 303.909 35.162,303.980 35.000,303.892 35.000 C 303.557 35.000,303.355 35.402,303.440 35.899 C 303.490 36.196,303.469 36.335,303.389 36.224 C 303.309 36.114,303.246 36.523,303.241 37.182 C 303.235 37.877,303.288 38.250,303.376 38.124 C 303.462 38.000,303.479 38.129,303.416 38.447 C 303.309 38.992,303.778 39.490,304.170 39.248 C 304.316 39.158,304.393 39.547,304.392 40.367 C 304.392 40.523,304.454 40.612,304.529 40.565 C 304.605 40.519,304.667 40.564,304.667 40.667 C 304.667 40.769,304.749 40.802,304.849 40.740 C 305.224 40.509,305.776 40.994,305.703 41.492 L 305.635 41.960 308.582 41.988 C 310.786 42.009,311.597 41.962,311.797 41.800 C 311.997 41.638,312.033 41.636,311.939 41.792 C 311.803 42.017,311.985 42.059,312.402 41.899 C 312.547 41.844,312.618 41.723,312.562 41.631 C 312.498 41.529,312.403 41.551,312.315 41.691 C 312.215 41.848,312.171 41.855,312.169 41.714 C 312.168 41.603,312.317 41.431,312.500 41.333 C 312.766 41.191,312.833 40.984,312.833 40.310 C 312.833 39.614,312.879 39.482,313.092 39.564 C 313.234 39.618,313.312 39.600,313.264 39.522 C 313.216 39.445,313.359 39.299,313.581 39.198 C 314.070 38.975,314.173 35.065,313.685 35.252 C 313.502 35.322,313.494 35.291,313.649 35.105 C 313.801 34.922,313.797 34.870,313.631 34.877 C 312.958 34.905,312.852 34.819,312.802 34.208 C 312.754 33.634,312.703 33.577,312.167 33.500 C 311.812 33.449,311.575 33.319,311.561 33.167 C 311.549 33.029,311.530 32.788,311.519 32.630 C 311.502 32.372,311.254 32.346,309.006 32.364 C 307.405 32.377,306.549 32.444,306.614 32.550 M334.167 32.527 C 334.167 32.614,334.083 32.635,333.982 32.572 C 333.879 32.509,333.597 32.691,333.353 32.977 C 333.062 33.318,332.737 33.508,332.413 33.529 C 332.140 33.546,331.811 33.641,331.683 33.739 C 331.554 33.837,331.405 33.899,331.351 33.876 C 331.297 33.854,331.245 33.929,331.235 34.043 C 331.226 34.157,331.206 34.386,331.192 34.553 C 331.174 34.772,331.078 34.828,330.847 34.754 C 330.672 34.699,330.482 34.728,330.425 34.819 C 330.369 34.911,330.216 34.944,330.085 34.894 C 329.916 34.829,329.866 34.902,329.912 35.142 C 329.955 35.365,329.905 35.453,329.765 35.399 C 329.499 35.297,329.100 35.758,329.248 35.997 C 329.309 36.095,329.296 36.164,329.221 36.151 C 328.806 36.079,328.704 36.209,328.754 36.746 C 328.789 37.122,328.739 37.312,328.612 37.287 C 328.505 37.267,328.436 37.347,328.461 37.465 C 328.496 37.638,328.429 37.641,328.127 37.480 C 327.781 37.295,327.769 37.302,327.987 37.565 C 328.117 37.723,328.154 37.839,328.070 37.823 C 327.705 37.754,327.570 37.857,327.567 38.208 C 327.554 39.836,327.507 40.041,327.166 39.952 C 326.983 39.904,326.864 39.915,326.902 39.976 C 326.940 40.037,326.867 40.274,326.741 40.502 C 326.615 40.730,326.509 40.810,326.506 40.681 C 326.503 40.551,326.467 40.478,326.426 40.519 C 326.385 40.559,326.415 40.872,326.492 41.213 C 326.569 41.554,326.571 41.833,326.496 41.833 C 326.422 41.833,326.354 43.234,326.345 44.946 C 326.337 46.659,326.308 48.081,326.282 48.107 C 326.256 48.133,325.240 48.167,324.024 48.182 C 322.662 48.200,321.737 48.282,321.615 48.397 C 321.506 48.499,321.323 48.591,321.208 48.600 C 320.775 48.635,320.715 48.678,320.526 49.093 C 320.419 49.327,320.381 49.713,320.440 49.951 C 320.516 50.254,320.492 50.348,320.358 50.265 C 320.233 50.188,320.167 50.298,320.167 50.583 C 320.167 50.860,320.234 50.978,320.351 50.906 C 320.478 50.827,320.502 50.944,320.428 51.282 C 320.298 51.873,320.774 52.574,321.414 52.734 C 321.777 52.826,321.806 52.881,321.635 53.156 C 321.402 53.528,321.733 54.074,322.105 53.932 C 322.225 53.886,322.371 53.925,322.429 54.020 C 322.495 54.126,323.226 54.173,324.342 54.143 C 325.336 54.116,326.189 54.134,326.238 54.182 C 326.287 54.231,326.331 60.663,326.337 68.475 C 326.344 78.982,326.396 82.648,326.535 82.562 C 326.658 82.486,326.687 82.540,326.619 82.717 C 326.562 82.867,326.598 83.041,326.700 83.104 C 326.818 83.177,326.841 83.134,326.763 82.984 C 326.697 82.855,326.757 82.891,326.897 83.063 C 327.057 83.260,327.278 83.343,327.492 83.287 C 327.680 83.238,327.833 83.260,327.833 83.335 C 327.833 83.610,333.011 83.499,333.117 83.222 C 333.195 83.019,333.239 83.013,333.354 83.194 C 333.431 83.317,333.496 76.835,333.497 68.792 L 333.500 54.167 338.375 54.148 C 341.056 54.138,343.427 54.145,343.644 54.163 C 343.888 54.183,343.995 54.127,343.927 54.016 C 343.856 53.902,343.920 53.877,344.104 53.948 C 344.324 54.032,344.366 53.993,344.284 53.779 C 344.225 53.626,344.253 53.500,344.345 53.500 C 344.633 53.500,344.523 48.338,344.235 48.313 C 344.106 48.301,343.925 48.273,343.833 48.250 C 343.742 48.227,341.379 48.199,338.583 48.188 L 333.500 48.167 333.500 45.667 C 333.500 43.791,333.552 43.161,333.708 43.142 C 333.823 43.128,334.067 43.110,334.250 43.100 C 334.483 43.088,334.591 42.957,334.608 42.667 C 334.678 41.506,334.931 40.750,335.255 40.733 C 335.927 40.698,335.963 40.664,335.910 40.114 L 335.857 39.562 337.262 39.597 C 338.034 39.617,338.667 39.584,338.667 39.525 C 338.667 39.465,339.660 39.431,340.875 39.448 L 343.083 39.480 343.500 38.918 C 343.729 38.608,344.037 38.323,344.184 38.283 C 344.524 38.191,344.663 33.500,344.325 33.500 C 344.218 33.500,344.176 33.384,344.230 33.241 C 344.295 33.072,344.263 33.024,344.136 33.102 C 344.004 33.184,343.980 33.126,344.059 32.920 C 344.157 32.664,344.136 32.651,343.917 32.833 C 343.696 33.016,343.676 33.001,343.777 32.732 C 343.882 32.453,343.863 32.443,343.615 32.645 C 343.373 32.842,343.333 32.837,343.333 32.613 C 343.333 32.383,342.801 32.353,338.750 32.359 C 335.941 32.364,334.167 32.429,334.167 32.527 M173.231 34.364 C 173.183 34.442,173.074 34.462,172.988 34.410 C 172.903 34.357,172.833 34.435,172.833 34.583 C 172.833 34.745,172.911 34.805,173.026 34.734 C 173.150 34.657,173.173 34.689,173.089 34.824 C 172.990 34.984,172.898 34.970,172.689 34.760 C 172.474 34.545,172.462 34.460,172.632 34.355 C 172.917 34.179,173.342 34.185,173.231 34.364 M329.065 35.422 C 328.913 35.654,328.836 35.891,328.894 35.950 C 328.952 36.008,329.000 35.968,329.000 35.861 C 329.000 35.754,329.150 35.517,329.333 35.333 C 329.517 35.150,329.593 35.000,329.504 35.000 C 329.414 35.000,329.217 35.190,329.065 35.422 M194.483 45.739 C 194.443 45.779,194.187 45.848,193.914 45.892 C 193.640 45.936,193.395 45.979,193.369 45.986 C 193.343 45.994,193.407 46.159,193.511 46.353 C 193.660 46.632,193.655 46.679,193.488 46.576 C 193.341 46.485,193.307 46.525,193.378 46.709 C 193.467 46.940,193.230 46.973,191.448 46.978 C 187.956 46.988,187.833 46.999,187.833 47.296 C 187.833 47.517,187.790 47.507,187.590 47.240 C 187.352 46.925,187.348 46.926,187.411 47.277 C 187.504 47.798,187.164 48.154,186.529 48.200 C 186.224 48.222,185.936 48.302,185.889 48.378 C 185.842 48.454,185.698 48.428,185.568 48.321 C 185.399 48.181,185.333 48.178,185.333 48.313 C 185.333 48.416,185.223 48.500,185.089 48.500 C 184.954 48.500,184.878 48.594,184.920 48.708 C 185.049 49.060,184.717 49.394,184.202 49.430 C 183.277 49.494,182.393 50.209,182.844 50.528 C 183.040 50.668,183.034 50.682,182.805 50.610 C 182.462 50.500,182.367 50.737,182.437 51.535 C 182.466 51.875,182.416 52.199,182.324 52.255 C 182.233 52.312,182.179 52.268,182.204 52.158 C 182.229 52.047,182.077 51.941,181.866 51.922 C 181.429 51.883,181.167 52.259,181.167 52.924 C 181.167 53.249,181.100 53.343,180.919 53.274 C 180.782 53.221,180.688 53.232,180.709 53.298 C 180.730 53.363,180.625 53.591,180.475 53.803 C 180.287 54.070,180.179 54.122,180.128 53.970 C 180.087 53.849,180.063 54.048,180.075 54.413 C 180.097 55.080,179.366 56.152,178.967 56.038 C 178.880 56.012,178.858 56.072,178.919 56.170 C 178.979 56.268,178.933 56.463,178.817 56.603 C 178.691 56.755,178.668 56.904,178.761 56.971 C 178.964 57.117,179.007 57.667,178.815 57.667 C 178.733 57.667,178.667 58.072,178.667 58.568 C 178.667 59.357,178.629 59.459,178.363 59.389 C 177.642 59.201,177.336 62.642,177.640 67.526 C 177.704 68.542,177.688 69.263,177.604 69.211 C 177.523 69.161,177.491 69.224,177.533 69.352 C 177.574 69.479,177.855 69.665,178.155 69.764 L 178.703 69.945 178.710 71.681 C 178.714 72.636,178.787 73.507,178.873 73.618 C 178.959 73.728,178.973 73.909,178.905 74.018 C 178.832 74.137,178.852 74.175,178.955 74.111 C 179.051 74.052,179.221 74.115,179.333 74.250 C 179.446 74.385,179.603 74.456,179.684 74.406 C 179.764 74.357,179.789 74.420,179.741 74.548 C 179.692 74.676,179.763 74.872,179.899 74.985 C 180.035 75.099,180.105 75.299,180.055 75.431 C 180.004 75.563,180.053 75.779,180.162 75.911 C 180.272 76.044,180.312 76.234,180.250 76.333 C 180.036 76.679,180.496 77.014,180.893 76.803 C 181.206 76.636,181.224 76.644,181.037 76.870 C 180.864 77.081,180.868 77.144,181.059 77.217 C 181.210 77.275,181.271 77.490,181.233 77.820 C 181.200 78.103,181.251 78.333,181.346 78.333 C 181.442 78.333,181.479 78.400,181.429 78.480 C 181.314 78.666,181.957 79.498,182.220 79.506 C 182.328 79.510,182.571 79.754,182.760 80.048 C 183.013 80.444,183.209 80.572,183.510 80.541 C 183.801 80.511,183.851 80.541,183.686 80.648 C 183.419 80.821,184.044 81.096,184.318 80.926 C 184.549 80.784,185.000 81.305,184.892 81.588 C 184.840 81.723,184.885 81.833,184.992 81.833 C 185.099 81.833,185.149 81.893,185.104 81.966 C 185.059 82.039,185.523 82.117,186.135 82.140 C 186.747 82.163,187.320 82.253,187.407 82.341 C 187.495 82.428,187.505 82.500,187.430 82.500 C 187.354 82.500,187.395 82.627,187.521 82.782 C 187.677 82.974,187.683 83.024,187.542 82.939 C 187.427 82.870,187.333 82.886,187.333 82.974 C 187.333 83.254,188.331 83.513,188.683 83.325 C 188.900 83.209,189.000 83.210,189.000 83.327 C 189.000 83.428,189.442 83.500,190.065 83.500 C 190.977 83.500,191.126 83.542,191.106 83.792 C 191.094 83.952,191.174 84.065,191.286 84.044 C 191.410 84.019,191.447 84.110,191.382 84.279 C 191.311 84.464,191.341 84.515,191.472 84.434 C 191.579 84.368,191.667 84.393,191.667 84.490 C 191.667 84.587,191.821 84.667,192.010 84.667 C 192.199 84.667,192.312 84.600,192.261 84.518 C 192.207 84.431,192.428 84.429,192.793 84.514 C 193.627 84.708,196.948 84.706,197.626 84.512 C 197.959 84.416,198.167 84.416,198.167 84.512 C 198.167 84.597,198.325 84.667,198.518 84.667 C 198.760 84.667,198.840 84.590,198.774 84.419 C 198.694 84.212,198.732 84.205,199.008 84.377 C 199.418 84.633,200.263 84.220,200.227 83.780 C 200.204 83.506,200.972 83.383,202.112 83.478 C 202.312 83.495,202.523 83.431,202.582 83.335 C 202.641 83.239,202.760 83.204,202.845 83.257 C 202.930 83.310,203.000 83.245,203.000 83.114 C 203.000 82.982,203.131 82.771,203.292 82.645 C 203.553 82.441,203.561 82.446,203.367 82.693 C 203.215 82.888,203.204 83.004,203.333 83.083 C 203.604 83.251,204.035 82.818,203.944 82.470 C 203.871 82.191,204.518 82.029,205.221 82.151 C 205.296 82.164,205.311 82.098,205.253 82.004 C 205.194 81.910,205.216 81.833,205.301 81.833 C 205.385 81.833,205.434 81.646,205.408 81.417 C 205.371 81.079,205.439 80.996,205.765 80.979 C 205.986 80.968,206.254 80.949,206.361 80.938 C 206.468 80.926,206.585 80.693,206.622 80.420 C 206.693 79.888,206.928 79.649,207.255 79.775 C 207.496 79.867,208.040 79.367,207.917 79.167 C 207.870 79.091,207.911 78.818,208.008 78.561 C 208.141 78.212,208.221 78.152,208.326 78.322 C 208.512 78.623,208.979 78.431,208.987 78.051 C 208.990 77.885,209.025 77.563,209.066 77.333 C 209.106 77.104,209.145 76.748,209.153 76.542 C 209.160 76.335,209.255 76.167,209.362 76.167 C 209.469 76.167,209.707 76.035,209.891 75.875 C 210.087 75.703,210.168 75.679,210.086 75.817 C 209.993 75.975,210.011 76.013,210.141 75.933 C 210.247 75.867,210.333 75.701,210.333 75.564 C 210.333 75.424,210.252 75.364,210.150 75.427 C 210.017 75.509,210.017 75.447,210.150 75.198 C 210.251 75.009,210.333 74.603,210.333 74.295 C 210.333 73.808,210.403 73.715,210.875 73.576 C 211.299 73.451,211.417 73.326,211.417 73.000 C 211.417 72.771,211.471 72.499,211.538 72.396 C 211.704 72.142,211.676 58.000,211.511 58.000 C 211.438 58.000,211.401 57.798,211.428 57.552 C 211.485 57.040,211.101 56.671,210.638 56.792 C 210.352 56.867,210.184 55.761,210.321 54.708 C 210.336 54.594,210.251 54.489,210.132 54.475 C 210.014 54.461,209.842 54.440,209.750 54.429 C 209.330 54.376,209.167 54.093,209.167 53.417 C 209.167 53.015,209.095 52.642,209.007 52.588 C 208.920 52.534,208.895 52.367,208.952 52.217 C 209.022 52.036,208.992 51.985,208.862 52.066 C 208.754 52.132,208.667 52.098,208.667 51.989 C 208.667 51.844,208.609 51.841,208.443 51.978 C 208.155 52.217,208.001 52.056,207.997 51.514 C 207.994 50.870,207.757 50.613,207.183 50.630 C 206.673 50.644,206.562 50.456,206.650 49.726 C 206.663 49.621,206.391 49.466,206.045 49.382 C 205.610 49.276,205.424 49.143,205.440 48.948 C 205.453 48.793,205.368 48.667,205.252 48.667 C 205.136 48.667,204.947 48.553,204.832 48.414 C 204.716 48.276,204.538 48.172,204.436 48.184 C 203.496 48.295,203.000 48.152,203.000 47.770 C 203.000 47.057,202.700 46.983,199.759 46.965 L 196.991 46.949 196.727 46.393 C 196.582 46.087,196.402 45.874,196.327 45.921 C 196.251 45.967,196.143 45.929,196.085 45.836 C 195.984 45.673,194.631 45.591,194.483 45.739 M235.435 45.943 C 235.262 46.112,235.172 46.157,235.235 46.044 C 235.311 45.908,235.266 45.870,235.103 45.932 C 234.828 46.038,234.806 46.665,235.077 46.669 C 235.172 46.671,235.148 46.736,235.024 46.815 C 234.900 46.894,233.531 46.962,231.982 46.968 C 229.035 46.979,228.667 47.065,228.763 47.722 C 228.818 48.097,228.664 48.152,227.380 48.216 C 226.810 48.245,226.285 48.332,226.213 48.411 C 226.142 48.489,226.189 48.492,226.317 48.418 C 226.476 48.326,226.513 48.345,226.431 48.477 C 226.365 48.584,226.236 48.626,226.145 48.570 C 225.936 48.441,225.333 48.973,225.333 49.286 C 225.333 49.414,225.258 49.473,225.167 49.417 C 225.075 49.360,225.000 49.386,225.000 49.475 C 225.000 49.563,224.864 49.600,224.697 49.556 C 224.250 49.439,223.930 49.892,224.159 50.319 C 224.309 50.599,224.296 50.642,224.087 50.562 C 223.948 50.508,223.833 50.552,223.833 50.660 C 223.833 50.784,223.703 50.814,223.479 50.743 C 223.261 50.674,223.164 50.695,223.227 50.797 C 223.348 50.992,222.936 51.380,222.776 51.221 C 222.609 51.054,222.645 51.316,222.839 51.678 C 222.960 51.904,222.958 52.000,222.832 52.000 C 222.733 52.000,222.664 52.094,222.679 52.208 C 222.746 52.721,222.652 53.177,222.500 53.083 C 222.408 53.027,222.240 53.040,222.125 53.113 C 222.010 53.185,221.849 53.246,221.766 53.247 C 221.683 53.249,221.596 53.362,221.574 53.500 C 221.551 53.637,221.475 53.894,221.404 54.069 C 221.308 54.310,221.331 54.355,221.497 54.252 C 221.653 54.156,221.679 54.179,221.585 54.330 C 221.512 54.449,221.435 54.704,221.414 54.898 C 221.393 55.091,221.366 55.342,221.355 55.455 C 221.342 55.581,221.143 55.638,220.837 55.602 C 220.564 55.571,220.381 55.610,220.430 55.689 C 220.480 55.768,220.431 55.833,220.323 55.833 C 220.177 55.833,220.174 55.891,220.311 56.057 C 220.414 56.180,220.451 56.327,220.394 56.384 C 220.337 56.441,220.244 56.905,220.187 57.415 C 220.130 57.926,220.039 58.322,219.984 58.297 C 219.929 58.271,219.761 58.353,219.609 58.479 C 219.298 58.737,219.225 59.254,219.526 59.067 C 219.653 58.989,219.673 59.022,219.584 59.166 C 219.479 59.336,219.400 59.317,219.225 59.077 C 218.959 58.713,218.939 58.818,219.163 59.406 C 219.252 59.641,219.259 59.833,219.178 59.833 C 219.097 59.833,219.023 61.033,219.014 62.500 C 219.001 64.541,219.046 65.167,219.207 65.169 C 219.370 65.171,219.368 65.203,219.199 65.310 C 218.948 65.469,218.963 71.167,219.214 71.167 C 219.292 71.167,219.312 71.306,219.257 71.476 C 219.150 71.815,219.549 72.259,219.814 72.095 C 219.984 71.990,220.186 72.460,220.275 73.167 C 220.303 73.396,220.337 73.658,220.350 73.750 C 220.363 73.842,220.317 74.051,220.249 74.215 C 220.181 74.379,220.191 74.502,220.271 74.487 C 220.608 74.426,220.733 74.516,220.508 74.658 C 220.341 74.764,220.454 74.796,220.871 74.763 C 221.433 74.718,221.473 74.746,221.434 75.149 C 221.411 75.388,221.463 75.677,221.550 75.792 C 221.654 75.929,221.642 76.000,221.515 76.000 C 221.373 76.000,221.369 76.089,221.502 76.337 C 221.601 76.522,221.642 76.738,221.594 76.816 C 221.545 76.895,221.767 77.236,222.086 77.575 C 222.405 77.913,222.667 78.348,222.667 78.540 C 222.667 78.732,222.711 78.845,222.764 78.791 C 222.928 78.627,223.476 79.201,223.384 79.441 C 223.337 79.565,223.381 79.667,223.482 79.667 C 223.584 79.667,223.667 79.592,223.667 79.500 C 223.667 79.408,223.805 79.465,223.973 79.625 C 224.205 79.846,224.236 79.975,224.098 80.156 C 223.951 80.350,223.977 80.373,224.232 80.277 C 224.501 80.176,224.516 80.196,224.333 80.417 C 224.151 80.636,224.164 80.657,224.420 80.559 C 224.590 80.494,224.680 80.510,224.627 80.597 C 224.575 80.681,224.694 80.766,224.891 80.786 C 225.088 80.805,225.400 80.856,225.583 80.898 C 225.767 80.940,226.049 80.980,226.212 80.987 C 226.437 80.997,226.483 81.093,226.406 81.398 C 226.294 81.845,226.461 81.998,227.235 82.162 C 227.577 82.235,227.742 82.365,227.727 82.551 C 227.715 82.704,227.771 82.789,227.852 82.738 C 227.933 82.688,228.000 82.773,228.000 82.927 C 228.000 83.169,228.038 83.176,228.281 82.979 C 228.527 82.778,228.549 82.786,228.453 83.042 C 228.387 83.218,228.424 83.337,228.547 83.343 C 230.203 83.421,231.262 83.557,231.313 83.699 C 231.467 84.133,232.025 84.502,232.419 84.430 C 232.647 84.389,232.833 84.425,232.833 84.511 C 232.833 84.597,232.946 84.667,233.083 84.667 C 233.221 84.667,233.333 84.600,233.333 84.518 C 233.333 84.432,233.629 84.435,234.034 84.526 C 234.880 84.716,240.000 84.653,240.000 84.453 C 240.000 84.375,240.141 84.356,240.314 84.410 C 240.677 84.526,240.902 84.136,240.630 83.863 C 240.386 83.619,240.928 83.503,242.609 83.440 C 243.930 83.390,244.522 83.160,244.391 82.749 C 244.271 82.369,244.651 82.185,245.670 82.131 C 246.470 82.088,246.756 82.010,246.772 81.828 C 246.785 81.694,246.804 81.471,246.815 81.333 C 246.827 81.196,247.023 80.997,247.252 80.891 C 247.480 80.785,247.625 80.766,247.574 80.849 C 247.437 81.070,247.733 81.033,247.967 80.800 C 248.215 80.552,248.231 80.274,247.988 80.424 C 247.889 80.485,247.904 80.382,248.021 80.195 C 248.216 79.883,248.736 79.605,249.042 79.649 C 249.186 79.669,249.179 79.705,249.269 78.500 C 249.363 77.254,249.396 77.198,250.004 77.269 C 250.421 77.318,250.514 77.277,250.439 77.082 C 250.387 76.945,250.400 76.833,250.470 76.833 C 250.539 76.833,250.600 76.702,250.606 76.542 C 250.632 75.793,251.028 75.305,251.493 75.451 C 251.714 75.520,251.716 75.507,251.507 75.359 C 251.296 75.210,251.301 75.145,251.548 74.872 C 251.765 74.632,251.833 74.251,251.833 73.273 C 251.833 72.006,251.838 71.991,252.195 72.182 C 252.495 72.342,252.595 72.324,252.778 72.073 C 253.058 71.691,253.065 71.441,252.792 71.605 C 252.632 71.701,252.633 71.669,252.797 71.467 C 253.065 71.136,253.078 58.333,252.811 58.333 C 252.721 58.333,252.688 58.267,252.738 58.185 C 252.789 58.104,252.737 58.041,252.623 58.045 C 251.854 58.073,251.833 58.041,251.833 56.833 C 251.833 56.123,251.764 55.667,251.657 55.667 C 251.560 55.667,251.529 55.588,251.588 55.493 C 251.720 55.278,251.232 54.500,250.964 54.500 C 250.857 54.500,250.915 54.617,251.093 54.759 C 251.404 55.008,251.402 55.011,251.042 54.837 C 250.803 54.721,250.667 54.505,250.667 54.244 C 250.667 54.018,250.577 53.833,250.467 53.833 C 250.319 53.833,250.315 53.785,250.454 53.646 C 250.775 53.325,250.497 53.000,249.899 53.000 L 249.333 53.000 249.314 51.958 C 249.303 51.385,249.303 50.860,249.314 50.792 C 249.324 50.723,249.111 50.667,248.839 50.667 C 248.365 50.667,247.876 50.179,248.113 49.943 C 248.319 49.737,247.820 49.382,247.430 49.457 C 247.033 49.533,246.542 49.013,246.784 48.772 C 246.842 48.714,246.797 48.667,246.685 48.667 C 246.572 48.667,246.526 48.593,246.582 48.502 C 246.641 48.407,246.574 48.379,246.425 48.436 C 246.283 48.491,246.167 48.453,246.167 48.351 C 246.167 48.239,245.812 48.167,245.260 48.167 C 244.395 48.167,243.928 47.960,244.374 47.775 C 244.518 47.715,244.461 47.581,244.190 47.344 C 243.764 46.971,243.478 46.945,240.250 46.988 C 239.237 47.001,238.305 46.935,238.167 46.842 C 237.998 46.727,237.985 46.671,238.125 46.669 C 238.240 46.668,238.333 46.554,238.333 46.417 C 238.333 46.279,238.254 46.167,238.157 46.167 C 238.060 46.167,238.019 46.104,238.066 46.028 C 238.113 45.951,238.062 45.880,237.951 45.869 C 237.840 45.858,237.300 45.801,236.750 45.743 C 235.912 45.654,235.699 45.687,235.435 45.943 M307.095 46.960 C 307.071 46.984,306.795 47.025,306.482 47.051 C 306.169 47.077,305.809 47.162,305.681 47.241 C 305.511 47.346,305.486 47.325,305.588 47.160 C 305.664 47.036,305.497 47.098,305.215 47.299 C 304.934 47.499,304.661 47.833,304.609 48.040 C 304.417 48.807,304.573 79.918,304.770 79.882 C 304.896 79.859,304.880 80.069,304.718 80.539 C 304.343 81.627,305.130 83.161,306.135 83.301 C 307.558 83.499,311.328 83.481,311.534 83.276 C 311.654 83.155,311.835 83.084,311.935 83.117 C 312.256 83.224,312.569 82.701,312.346 82.432 C 312.196 82.251,312.197 82.167,312.351 82.072 C 312.478 81.994,312.508 82.019,312.433 82.141 C 312.367 82.247,312.386 82.333,312.475 82.333 C 312.936 82.333,312.983 49.132,312.523 48.847 C 312.331 48.729,312.331 48.693,312.523 48.617 C 312.701 48.546,312.703 48.523,312.532 48.513 C 312.412 48.506,312.353 48.436,312.402 48.357 C 312.451 48.278,312.314 48.233,312.097 48.257 C 311.758 48.294,311.690 48.210,311.600 47.650 C 311.526 47.189,311.412 46.997,311.206 46.991 C 309.656 46.945,307.130 46.926,307.095 46.960 M326.784 47.875 C 326.745 48.081,326.712 47.913,326.712 47.500 C 326.712 47.087,326.745 46.919,326.784 47.125 C 326.824 47.331,326.824 47.669,326.784 47.875 M348.664 47.018 C 348.253 47.074,347.820 47.084,347.702 47.040 C 347.583 46.995,347.501 47.025,347.520 47.105 C 347.570 47.325,347.313 47.841,347.191 47.765 C 347.132 47.729,347.083 48.217,347.082 48.850 C 347.082 49.482,347.120 50.000,347.166 50.000 C 347.212 50.000,347.261 50.196,347.275 50.436 C 347.290 50.689,347.521 51.072,347.828 51.353 C 348.187 51.681,348.325 51.932,348.259 52.139 C 348.198 52.330,348.358 52.718,348.690 53.180 C 349.038 53.665,349.095 53.808,348.859 53.599 C 348.662 53.425,348.500 53.366,348.500 53.468 C 348.500 53.711,349.126 54.045,349.337 53.915 C 349.493 53.818,349.572 54.257,349.509 54.875 C 349.492 55.035,349.561 55.167,349.662 55.167 C 349.791 55.167,349.794 55.261,349.673 55.489 C 349.460 55.885,349.452 56.049,349.649 55.927 C 349.731 55.877,349.843 55.951,349.897 56.093 C 349.954 56.241,349.926 56.307,349.831 56.249 C 349.463 56.021,349.699 56.498,350.138 56.867 C 350.653 57.300,351.119 58.333,350.799 58.333 C 350.698 58.333,350.752 58.485,350.920 58.671 C 351.153 58.928,351.257 58.958,351.360 58.796 C 351.457 58.642,351.496 58.667,351.497 58.885 C 351.499 59.051,351.575 59.140,351.667 59.083 C 351.758 59.027,351.841 59.116,351.850 59.282 C 351.860 59.448,351.882 59.899,351.900 60.285 C 351.937 61.101,352.001 61.192,352.557 61.225 C 352.783 61.239,352.933 61.306,352.891 61.375 C 352.848 61.444,352.886 61.500,352.975 61.500 C 353.064 61.500,353.117 61.689,353.091 61.921 C 353.066 62.152,353.103 62.377,353.174 62.421 C 353.246 62.466,353.269 62.726,353.225 63.001 C 353.178 63.299,353.220 63.500,353.329 63.500 C 353.458 63.500,353.461 63.595,353.339 63.822 C 353.137 64.201,353.110 64.514,353.306 64.204 C 353.410 64.041,353.509 64.067,353.731 64.313 C 353.949 64.554,353.971 64.665,353.818 64.759 C 353.680 64.845,353.658 64.815,353.750 64.667 C 353.845 64.513,353.820 64.488,353.667 64.583 C 353.513 64.678,353.488 64.654,353.583 64.500 C 353.676 64.350,353.653 64.322,353.510 64.411 C 353.348 64.511,353.359 64.597,353.559 64.797 C 353.771 65.009,353.862 65.017,354.075 64.840 C 354.334 64.625,354.436 65.105,354.375 66.250 C 354.365 66.433,354.401 66.696,354.455 66.833 C 354.509 66.971,354.535 67.158,354.513 67.250 C 354.490 67.342,354.528 67.361,354.596 67.293 C 354.664 67.225,354.820 67.253,354.943 67.355 C 355.108 67.492,355.167 67.491,355.167 67.354 C 355.167 67.097,355.440 67.116,355.465 67.375 C 355.476 67.490,355.512 68.009,355.545 68.530 C 355.579 69.050,355.714 69.609,355.845 69.770 C 356.023 69.989,356.027 70.030,355.861 69.930 C 355.699 69.833,355.712 69.937,355.907 70.315 C 356.154 70.792,356.346 70.916,356.729 70.846 C 356.809 70.832,356.830 70.935,356.776 71.077 C 356.721 71.218,356.734 71.333,356.803 71.333 C 356.872 71.333,356.920 71.592,356.910 71.909 C 356.899 72.228,356.960 72.441,357.046 72.388 C 357.136 72.333,357.157 72.436,357.096 72.628 C 356.979 72.997,357.363 73.500,357.762 73.500 C 357.978 73.500,358.105 74.243,358.012 74.958 C 357.998 75.073,358.068 75.167,358.169 75.167 C 358.270 75.167,358.305 75.245,358.245 75.341 C 358.088 75.596,358.486 76.000,358.895 76.000 C 359.209 76.000,359.249 76.091,359.237 76.792 C 359.230 77.227,359.293 77.674,359.377 77.784 C 359.460 77.895,359.473 78.075,359.405 78.185 C 359.327 78.311,359.353 78.341,359.474 78.266 C 359.580 78.201,359.667 78.226,359.667 78.323 C 359.667 78.421,359.723 78.491,359.792 78.480 C 360.385 78.387,360.417 78.481,360.396 80.292 C 360.385 81.277,360.367 82.170,360.355 82.275 C 360.343 82.381,360.116 82.452,359.851 82.433 C 359.516 82.410,359.395 82.466,359.452 82.616 C 359.498 82.734,359.614 82.783,359.710 82.723 C 359.810 82.662,359.836 82.695,359.770 82.800 C 359.707 82.902,359.546 82.943,359.411 82.892 C 359.161 82.796,359.074 83.019,359.281 83.226 C 359.443 83.387,359.471 84.000,359.317 84.000 C 359.246 84.000,359.165 84.206,359.136 84.458 C 359.094 84.820,358.995 84.918,358.667 84.923 C 358.358 84.928,358.264 85.008,358.303 85.232 C 358.332 85.398,358.292 85.494,358.214 85.446 C 358.135 85.397,358.055 85.739,358.035 86.205 C 357.995 87.111,357.778 87.532,357.421 87.395 C 357.122 87.281,356.944 87.612,356.873 88.414 C 356.841 88.782,356.800 89.235,356.782 89.421 C 356.764 89.607,356.455 90.119,356.094 90.559 C 355.734 90.999,355.509 91.410,355.594 91.471 C 355.804 91.622,355.794 93.716,355.583 93.878 C 355.479 93.958,355.524 94.089,355.703 94.226 C 355.921 94.393,355.942 94.491,355.793 94.640 C 355.644 94.790,355.660 94.898,355.862 95.101 C 356.067 95.305,356.156 95.318,356.256 95.157 C 356.345 95.013,356.317 94.990,356.167 95.083 C 356.021 95.173,355.989 95.153,356.069 95.023 C 356.243 94.741,356.505 94.960,356.380 95.284 C 356.302 95.488,356.345 95.531,356.549 95.453 C 356.700 95.395,356.863 95.413,356.912 95.492 C 357.031 95.684,361.811 95.670,361.930 95.478 C 361.981 95.395,362.074 95.359,362.137 95.396 C 362.260 95.471,362.571 95.183,362.654 94.917 C 362.843 94.316,363.012 94.000,363.146 94.000 C 363.526 94.000,363.943 92.881,363.984 91.752 C 364.007 91.114,364.101 90.477,364.192 90.337 C 364.334 90.120,364.346 90.124,364.272 90.364 C 364.204 90.585,364.282 90.638,364.634 90.611 C 365.057 90.578,365.086 90.523,365.127 89.663 C 365.200 88.149,365.272 87.980,365.795 88.095 C 366.112 88.163,366.181 88.145,366.023 88.034 C 365.862 87.920,365.852 87.855,365.990 87.809 C 366.097 87.773,366.212 87.595,366.246 87.414 C 366.280 87.232,366.319 87.083,366.332 87.083 C 366.346 87.083,366.393 86.783,366.437 86.417 C 366.480 86.050,366.597 85.722,366.696 85.688 C 367.061 85.560,367.523 84.967,367.435 84.737 C 367.385 84.607,367.416 84.500,367.505 84.500 C 367.594 84.500,367.658 84.444,367.647 84.375 C 367.508 83.493,367.700 82.167,367.967 82.167 C 368.132 82.167,368.368 82.073,368.491 81.958 C 368.673 81.790,368.690 81.795,368.582 81.984 C 368.493 82.141,368.512 82.179,368.641 82.099 C 368.756 82.028,368.833 81.518,368.833 80.823 C 368.833 79.906,368.885 79.667,369.083 79.667 C 369.351 79.667,370.013 79.082,369.980 78.875 C 369.969 78.806,369.979 78.694,370.001 78.625 C 370.102 78.313,370.126 78.122,370.146 77.480 C 370.163 76.912,370.207 76.826,370.399 76.985 C 370.584 77.139,370.627 77.117,370.607 76.881 C 370.591 76.683,370.682 76.600,370.875 76.632 C 371.035 76.659,371.167 76.603,371.167 76.507 C 371.167 76.412,371.080 76.333,370.974 76.333 C 370.859 76.333,370.892 76.211,371.058 76.029 C 371.251 75.814,371.333 75.418,371.333 74.695 C 371.333 74.130,371.408 73.657,371.500 73.646 C 371.592 73.634,371.798 73.618,371.958 73.610 C 372.401 73.587,372.495 73.344,372.497 72.208 C 372.499 71.501,372.567 71.159,372.708 71.142 C 372.823 71.128,373.067 71.110,373.250 71.100 C 373.480 71.089,373.593 70.955,373.616 70.667 C 373.740 69.091,373.996 68.375,374.356 68.597 C 374.485 68.677,374.710 68.387,374.787 68.042 C 374.812 67.927,374.865 67.702,374.904 67.542 C 374.943 67.381,374.980 66.977,374.987 66.644 C 374.997 66.186,375.081 66.018,375.331 65.952 C 375.606 65.880,375.921 65.399,376.090 64.792 C 376.109 64.723,376.134 64.217,376.146 63.667 C 376.161 62.921,376.227 62.667,376.404 62.667 C 376.535 62.667,376.677 62.535,376.718 62.375 C 376.788 62.109,376.796 62.110,376.814 62.389 C 376.846 62.889,377.250 62.597,377.255 62.069 C 377.258 61.802,377.320 61.488,377.393 61.371 C 377.465 61.254,377.503 60.902,377.476 60.588 C 377.449 60.274,377.481 59.964,377.547 59.898 C 377.613 59.832,377.667 59.877,377.667 59.998 C 377.667 60.151,377.778 60.121,378.029 59.901 C 378.228 59.726,378.336 59.677,378.269 59.792 C 378.200 59.909,378.232 60.000,378.342 60.000 C 378.466 60.000,378.498 59.850,378.432 59.583 C 378.369 59.335,378.398 59.167,378.504 59.167 C 378.602 59.167,378.669 59.073,378.654 58.958 C 378.557 58.210,378.690 57.682,379.002 57.583 C 379.186 57.524,379.449 57.260,379.585 56.996 C 379.888 56.411,379.898 56.275,379.625 56.439 C 379.467 56.534,379.461 56.506,379.598 56.324 C 379.698 56.191,379.799 55.671,379.821 55.168 C 379.864 54.209,380.007 53.989,380.500 54.118 C 380.662 54.161,380.853 54.103,380.924 53.989 C 381.014 53.843,380.982 53.824,380.817 53.923 C 380.620 54.042,380.618 54.021,380.806 53.789 C 380.928 53.638,380.980 53.436,380.921 53.341 C 380.862 53.245,380.884 53.167,380.970 53.167 C 381.055 53.167,381.128 52.885,381.131 52.542 C 381.140 51.547,381.157 51.474,381.344 51.590 C 381.442 51.651,381.630 51.561,381.761 51.392 C 381.993 51.094,381.997 51.094,381.889 51.402 C 381.810 51.628,381.836 51.685,381.978 51.597 C 382.089 51.528,382.137 51.335,382.083 51.167 C 382.030 50.999,382.056 50.818,382.142 50.765 C 382.333 50.647,382.310 47.500,382.118 47.500 C 382.042 47.500,382.023 47.430,382.076 47.345 C 382.238 47.084,381.504 46.956,381.210 47.195 C 380.979 47.382,380.958 47.380,381.079 47.180 C 381.184 47.006,381.153 46.970,380.960 47.044 C 380.817 47.099,380.658 47.103,380.609 47.053 C 380.535 46.980,378.969 46.967,376.125 47.016 C 375.965 47.018,375.833 47.106,375.833 47.210 C 375.833 47.350,375.782 47.349,375.640 47.206 C 375.492 47.059,375.392 47.115,375.223 47.442 C 374.950 47.968,374.944 48.054,375.192 47.901 C 375.312 47.827,375.340 47.855,375.266 47.974 C 375.201 48.080,374.997 48.167,374.814 48.167 C 374.620 48.167,374.526 48.241,374.590 48.344 C 374.656 48.451,374.577 48.501,374.392 48.469 C 374.170 48.432,374.098 48.504,374.136 48.725 C 374.165 48.895,374.128 48.996,374.053 48.950 C 373.978 48.903,373.905 49.243,373.891 49.705 C 373.876 50.167,373.774 50.600,373.663 50.669 C 373.511 50.763,373.517 50.818,373.689 50.897 C 373.814 50.955,373.715 50.964,373.469 50.917 C 372.911 50.811,372.782 51.003,373.000 51.611 C 373.150 52.030,373.143 52.050,372.937 51.786 C 372.730 51.521,372.708 51.572,372.731 52.258 C 372.745 52.681,372.702 53.061,372.636 53.103 C 372.569 53.144,372.554 53.280,372.602 53.405 C 372.650 53.530,372.610 53.682,372.513 53.742 C 372.406 53.808,372.376 53.749,372.436 53.592 C 372.570 53.243,372.281 53.264,371.953 53.626 C 371.624 53.991,371.446 54.715,371.475 55.573 C 371.501 56.334,371.112 57.032,370.701 56.964 C 370.505 56.931,370.433 57.012,370.469 57.225 C 370.501 57.410,370.451 57.490,370.344 57.424 C 370.247 57.363,370.167 57.426,370.167 57.564 C 370.167 57.701,370.242 57.860,370.334 57.917 C 370.445 57.986,370.445 58.125,370.333 58.335 C 370.240 58.508,370.148 58.845,370.128 59.084 C 370.103 59.393,370.015 59.499,369.824 59.449 C 369.676 59.411,369.552 59.463,369.548 59.565 C 369.543 59.667,369.481 59.894,369.408 60.069 C 369.309 60.311,369.330 60.355,369.497 60.252 C 369.647 60.159,369.678 60.179,369.594 60.316 C 369.499 60.470,369.410 60.467,369.208 60.300 C 368.975 60.108,368.968 60.125,369.145 60.458 C 369.294 60.737,369.296 60.833,369.153 60.833 C 369.043 60.833,368.998 60.976,369.048 61.167 C 369.096 61.350,369.071 61.540,368.992 61.589 C 368.913 61.637,368.885 61.773,368.930 61.891 C 368.975 62.008,368.840 62.250,368.631 62.427 L 368.250 62.750 368.542 62.404 C 368.901 61.976,368.914 61.813,368.577 61.942 C 368.436 61.996,368.205 62.265,368.063 62.539 C 367.922 62.813,367.884 62.988,367.979 62.930 C 368.075 62.871,368.045 63.030,367.914 63.283 C 367.761 63.577,367.711 63.970,367.775 64.371 C 367.834 64.738,367.799 65.091,367.689 65.223 C 367.587 65.346,367.558 65.507,367.626 65.580 C 367.694 65.652,367.573 65.620,367.357 65.507 C 367.046 65.345,366.925 65.345,366.774 65.509 C 366.629 65.666,366.634 65.687,366.792 65.598 C 366.906 65.533,367.000 65.564,367.000 65.667 C 367.000 65.769,367.087 65.799,367.192 65.734 C 367.313 65.660,367.340 65.688,367.264 65.810 C 367.198 65.918,367.061 65.954,366.960 65.892 C 366.839 65.817,366.816 65.881,366.892 66.080 C 366.994 66.346,366.975 66.354,366.723 66.149 C 366.470 65.943,366.451 65.952,366.555 66.230 C 366.789 66.852,366.496 68.176,366.163 67.998 C 365.948 67.883,365.807 67.916,365.643 68.119 C 365.451 68.355,365.452 68.376,365.653 68.255 C 365.833 68.146,365.863 68.182,365.778 68.403 C 365.717 68.563,365.667 68.730,365.667 68.773 C 365.667 68.817,365.592 68.807,365.500 68.750 C 365.408 68.693,365.333 68.723,365.333 68.815 C 365.333 68.908,365.465 69.060,365.625 69.153 C 365.898 69.312,365.897 69.324,365.607 69.328 C 365.351 69.332,365.309 69.436,365.365 69.917 C 365.412 70.319,365.366 70.500,365.217 70.500 C 365.097 70.500,365.000 70.402,365.000 70.282 C 365.000 70.143,364.818 70.077,364.500 70.099 L 364.000 70.133 363.998 68.775 C 363.995 67.294,363.878 66.619,363.648 66.762 C 363.566 66.812,363.500 66.769,363.500 66.665 C 363.500 66.553,363.365 66.520,363.167 66.583 C 362.889 66.671,362.831 66.611,362.818 66.220 C 362.767 64.690,362.563 63.794,362.347 64.145 C 362.078 64.580,361.694 63.921,361.623 62.900 C 361.546 61.820,361.408 61.434,361.154 61.591 C 360.660 61.897,360.333 61.475,360.331 60.530 C 360.328 59.290,360.203 58.867,359.800 58.739 C 359.582 58.670,359.497 58.531,359.549 58.330 C 359.604 58.120,359.557 58.053,359.398 58.114 C 359.164 58.204,359.088 57.720,359.164 56.606 C 359.182 56.338,359.126 56.172,359.037 56.227 C 358.949 56.282,358.886 56.165,358.897 55.969 C 358.911 55.712,358.812 55.605,358.542 55.584 C 358.025 55.545,358.015 55.523,357.979 54.435 C 357.945 53.376,357.707 53.000,357.071 53.000 C 356.681 53.000,356.667 52.958,356.667 51.833 C 356.667 51.123,356.598 50.667,356.490 50.667 C 356.393 50.667,356.359 50.593,356.415 50.503 C 356.545 50.292,356.211 49.667,355.968 49.667 C 355.866 49.667,355.925 49.830,356.099 50.030 L 356.417 50.394 355.990 50.081 C 355.691 49.861,355.553 49.592,355.527 49.176 C 355.506 48.850,355.440 48.433,355.380 48.250 C 355.319 48.067,355.287 47.792,355.309 47.640 C 355.388 47.092,355.053 47.032,351.497 46.959 C 350.349 46.936,349.074 46.962,348.664 47.018 M283.905 47.814 C 283.955 47.896,283.891 48.050,283.762 48.157 C 283.549 48.333,283.511 48.175,283.654 47.708 C 283.682 47.617,283.819 47.675,283.905 47.814 M197.381 53.331 C 197.474 53.686,198.104 54.010,198.917 54.123 C 199.192 54.161,199.442 54.262,199.473 54.347 C 199.503 54.432,199.582 54.469,199.648 54.428 C 199.713 54.388,199.864 54.511,199.983 54.702 C 200.177 55.012,200.167 55.036,199.892 54.931 C 199.650 54.839,199.627 54.857,199.785 55.016 C 199.943 55.176,200.042 55.173,200.247 55.003 C 200.468 54.819,200.492 54.828,200.403 55.060 C 200.325 55.262,200.392 55.333,200.659 55.333 C 200.857 55.333,200.974 55.407,200.919 55.497 C 200.788 55.708,201.122 56.333,201.365 56.333 C 201.468 56.333,201.409 56.171,201.234 55.972 C 200.938 55.634,200.952 55.636,201.458 56.003 C 201.991 56.390,202.199 56.636,201.792 56.398 C 201.677 56.331,201.716 56.428,201.879 56.614 C 202.063 56.825,202.131 57.065,202.059 57.253 C 201.973 57.477,202.000 57.520,202.164 57.418 C 202.314 57.325,202.345 57.346,202.261 57.483 C 202.188 57.601,202.299 57.835,202.531 58.050 C 202.996 58.481,203.412 59.404,203.256 59.657 C 203.196 59.754,203.264 59.833,203.407 59.833 C 203.550 59.833,203.667 59.918,203.667 60.020 C 203.667 60.155,203.733 60.153,203.902 60.012 C 204.321 59.665,204.359 60.071,204.349 64.757 L 204.340 69.338 203.777 69.832 C 203.311 70.242,203.219 70.433,203.239 70.955 C 203.253 71.300,203.196 71.677,203.112 71.791 C 203.029 71.905,202.999 72.143,203.045 72.320 C 203.104 72.546,203.060 72.615,202.898 72.553 C 202.771 72.504,202.667 72.551,202.667 72.656 C 202.667 72.762,202.535 72.826,202.375 72.799 C 202.201 72.770,202.102 72.841,202.131 72.976 C 202.157 73.100,202.101 73.295,202.007 73.408 C 201.913 73.521,201.877 73.655,201.928 73.705 C 201.978 73.756,201.790 73.960,201.510 74.160 C 201.229 74.359,201.000 74.630,201.000 74.761 C 201.000 74.977,200.798 75.073,200.458 75.020 C 200.390 75.009,200.333 75.146,200.333 75.323 C 200.333 75.501,200.259 75.693,200.169 75.749 C 200.077 75.806,200.045 75.744,200.097 75.609 C 200.212 75.308,199.900 75.090,199.736 75.356 C 199.665 75.471,199.687 75.507,199.790 75.444 C 199.895 75.378,199.955 75.494,199.941 75.735 C 199.927 75.955,199.866 76.103,199.803 76.065 C 199.741 76.026,199.641 76.074,199.581 76.171 C 199.521 76.268,199.317 76.298,199.127 76.238 C 198.860 76.153,198.805 76.187,198.883 76.389 C 198.950 76.562,198.908 76.621,198.760 76.564 C 198.628 76.513,198.453 76.670,198.329 76.949 L 198.121 77.420 195.181 77.409 C 192.143 77.398,191.758 77.334,191.909 76.859 C 191.962 76.689,191.866 76.497,191.665 76.371 C 191.477 76.254,191.333 76.235,191.333 76.328 C 191.333 76.435,191.185 76.435,190.906 76.329 C 190.671 76.240,190.296 76.167,190.072 76.167 C 189.669 76.167,189.629 76.095,189.624 75.368 C 189.622 75.118,189.529 74.996,189.352 75.013 C 188.561 75.089,188.333 74.996,188.333 74.597 C 188.333 73.979,188.173 73.697,187.864 73.771 C 187.352 73.893,187.187 73.597,187.152 72.488 C 187.116 71.404,187.115 71.400,186.609 71.362 C 186.329 71.340,186.083 71.306,186.062 71.284 C 186.041 71.263,186.004 70.234,185.981 68.998 C 185.933 66.417,185.819 65.977,185.316 66.432 C 185.059 66.665,184.950 66.683,184.788 66.520 C 184.626 66.356,184.653 66.339,184.917 66.438 C 185.203 66.545,185.220 66.526,185.039 66.302 C 184.923 66.159,184.874 65.920,184.932 65.771 C 184.989 65.622,184.955 65.500,184.856 65.500 C 184.530 65.500,184.850 65.032,185.244 64.933 C 185.781 64.798,185.853 64.525,185.944 62.250 C 186.018 60.398,186.053 60.228,186.413 59.956 C 186.682 59.753,186.776 59.548,186.719 59.290 C 186.654 58.990,186.673 58.966,186.816 59.167 C 186.942 59.343,187.002 59.355,187.018 59.208 C 187.031 59.094,187.060 58.925,187.083 58.833 C 187.106 58.742,187.134 58.404,187.146 58.083 C 187.160 57.687,187.246 57.500,187.415 57.500 C 187.552 57.500,187.833 57.238,188.040 56.917 C 188.247 56.597,188.541 56.294,188.693 56.244 C 188.846 56.194,189.091 55.969,189.239 55.744 C 189.399 55.500,189.667 55.333,189.900 55.333 C 190.259 55.333,190.595 55.098,190.667 54.795 C 190.839 54.070,190.863 54.049,191.443 54.113 C 191.780 54.150,191.985 54.111,191.930 54.021 C 191.875 53.932,191.989 53.905,192.192 53.958 C 192.437 54.022,192.514 53.991,192.434 53.861 C 192.360 53.741,192.404 53.704,192.553 53.761 C 192.805 53.858,193.066 53.408,192.907 53.152 C 192.853 53.063,193.751 53.000,195.054 53.000 C 197.150 53.000,197.300 53.021,197.381 53.331 M239.074 53.458 L 239.353 53.917 239.010 53.523 C 238.821 53.307,238.667 53.201,238.667 53.289 C 238.667 53.638,239.332 54.017,240.103 54.109 C 241.049 54.222,241.011 54.201,241.042 54.619 C 241.075 55.053,241.331 55.262,241.833 55.264 C 242.143 55.266,242.236 55.344,242.197 55.567 C 242.168 55.732,242.209 55.827,242.289 55.778 C 242.368 55.728,242.535 55.852,242.660 56.052 C 242.875 56.398,242.870 56.404,242.568 56.167 C 242.274 55.936,242.267 55.939,242.479 56.208 C 242.605 56.369,242.846 56.500,243.015 56.500 C 243.385 56.500,243.757 57.091,243.490 57.256 C 243.305 57.371,243.772 57.820,244.083 57.825 C 244.175 57.827,244.137 57.747,244.000 57.648 C 243.792 57.499,243.801 57.485,244.055 57.568 C 244.223 57.622,244.423 57.667,244.499 57.667 C 244.575 57.667,244.621 58.229,244.600 58.917 C 244.580 59.604,244.610 60.167,244.666 60.167 C 244.722 60.167,244.757 60.501,244.743 60.911 C 244.729 61.320,244.763 61.628,244.817 61.594 C 244.872 61.561,245.051 61.714,245.216 61.934 C 245.556 62.387,245.488 62.464,245.095 62.071 C 244.951 61.927,244.833 61.887,244.833 61.982 C 244.833 62.206,245.462 62.543,245.656 62.423 C 245.742 62.370,245.801 63.602,245.795 65.318 C 245.787 67.671,245.740 68.287,245.572 68.223 C 245.455 68.178,245.274 68.299,245.171 68.492 C 245.068 68.685,244.925 68.807,244.854 68.763 C 244.784 68.719,244.717 68.923,244.707 69.217 C 244.627 71.483,244.596 71.626,244.104 72.014 L 243.624 72.391 243.821 71.987 C 244.009 71.602,244.006 71.598,243.756 71.912 C 243.611 72.093,243.529 72.336,243.574 72.454 C 243.619 72.571,243.569 72.667,243.461 72.667 C 243.319 72.667,243.316 72.716,243.452 72.852 C 243.737 73.137,243.373 74.051,243.027 73.918 C 242.880 73.862,242.808 73.863,242.866 73.922 C 243.008 74.063,242.456 74.635,242.274 74.536 C 242.195 74.493,242.185 74.627,242.250 74.833 C 242.331 75.089,242.310 75.172,242.185 75.094 C 242.083 75.032,242.000 75.062,242.000 75.163 C 242.000 75.290,241.886 75.284,241.625 75.145 C 241.292 74.968,241.274 74.975,241.466 75.208 C 241.614 75.387,241.627 75.505,241.505 75.580 C 241.408 75.640,241.378 75.771,241.440 75.871 C 241.508 75.981,241.474 76.003,241.351 75.928 C 241.197 75.833,241.196 75.749,241.346 75.568 C 241.482 75.404,241.486 75.333,241.357 75.333 C 241.256 75.333,241.128 75.514,241.072 75.736 C 240.972 76.135,240.316 76.445,239.994 76.246 C 239.908 76.193,239.882 76.266,239.936 76.408 C 239.993 76.554,239.948 76.667,239.833 76.667 C 239.722 76.667,239.674 76.778,239.726 76.914 C 239.894 77.352,239.314 77.435,236.333 77.403 C 232.860 77.365,233.109 77.390,233.224 77.092 C 233.286 76.930,233.236 76.881,233.075 76.943 C 232.862 77.025,232.757 76.833,232.812 76.464 C 232.821 76.399,232.725 76.385,232.598 76.434 C 232.471 76.483,232.318 76.443,232.257 76.345 C 232.197 76.247,231.926 76.167,231.657 76.167 C 231.341 76.167,231.159 76.077,231.146 75.917 C 231.134 75.779,231.106 75.592,231.083 75.500 C 231.060 75.408,231.032 75.258,231.021 75.167 C 231.009 75.075,230.737 75.000,230.417 75.000 C 229.829 75.000,229.758 74.892,229.788 74.043 C 229.792 73.930,229.734 73.875,229.659 73.921 C 229.584 73.968,229.474 73.926,229.414 73.829 C 229.354 73.732,229.162 73.699,228.986 73.754 C 228.680 73.852,228.531 73.157,228.654 72.208 C 228.669 72.094,228.603 72.000,228.507 72.000 C 228.412 72.000,228.342 71.944,228.353 71.875 C 228.412 71.500,228.294 71.387,227.917 71.459 C 227.527 71.534,227.500 71.495,227.500 70.853 C 227.500 70.475,227.422 70.167,227.327 70.167 C 227.210 70.167,227.212 70.059,227.333 69.833 C 227.519 69.487,227.319 68.885,226.933 68.628 C 226.814 68.548,226.837 68.502,227.000 68.497 C 227.199 68.491,227.191 68.456,226.962 68.322 C 226.803 68.230,226.624 68.163,226.564 68.175 C 226.264 68.231,226.172 67.535,226.169 65.212 L 226.167 62.673 226.588 62.567 C 227.166 62.422,227.302 62.095,227.417 60.567 C 227.537 58.985,227.647 58.531,227.835 58.836 C 228.015 59.128,228.561 58.899,228.439 58.582 C 228.387 58.445,228.416 58.333,228.505 58.333 C 228.594 58.333,228.667 57.931,228.667 57.440 C 228.667 56.585,228.685 56.548,229.083 56.592 C 229.313 56.617,229.500 56.564,229.500 56.475 C 229.500 56.386,229.566 56.354,229.646 56.404 C 229.726 56.453,229.792 56.299,229.792 56.061 C 229.792 55.648,230.111 55.279,230.344 55.423 C 230.565 55.560,231.813 54.828,231.916 54.502 C 232.019 54.178,232.254 54.095,232.879 54.159 C 233.045 54.176,233.154 54.093,233.129 53.969 C 233.104 53.849,233.186 53.772,233.311 53.798 C 233.478 53.833,233.511 53.732,233.433 53.423 L 233.327 53.000 236.061 53.000 L 238.795 53.000 239.074 53.458 M274.278 53.222 C 274.278 53.344,274.178 53.444,274.056 53.444 C 273.933 53.444,273.833 53.344,273.833 53.222 C 273.833 53.100,273.933 53.000,274.056 53.000 C 274.178 53.000,274.278 53.100,274.278 53.222 M280.216 53.133 C 280.106 53.203,280.027 53.422,280.042 53.619 C 280.057 53.816,280.123 53.943,280.190 53.902 C 280.256 53.861,280.350 53.892,280.399 53.971 C 280.447 54.049,280.875 54.127,281.349 54.144 C 282.339 54.179,282.520 54.253,282.397 54.574 C 282.323 54.768,282.769 55.376,283.781 56.458 C 283.891 56.576,284.021 56.602,284.073 56.516 C 284.125 56.432,284.299 56.382,284.459 56.406 C 284.928 56.474,284.993 71.403,284.525 71.653 C 284.354 71.745,284.083 72.020,283.923 72.264 C 283.730 72.559,283.708 72.666,283.858 72.583 C 283.982 72.515,283.708 72.818,283.250 73.256 C 282.670 73.811,282.417 74.184,282.417 74.485 C 282.417 74.864,282.340 74.923,281.787 74.969 C 281.338 75.006,280.998 75.180,280.603 75.575 C 279.879 76.299,279.435 76.535,279.214 76.314 C 279.099 76.199,279.011 76.231,278.941 76.414 C 278.870 76.599,278.902 76.646,279.044 76.563 C 279.157 76.497,279.100 76.618,278.917 76.833 C 278.703 77.084,278.673 77.179,278.833 77.100 C 279.016 77.009,279.011 77.035,278.812 77.199 C 278.128 77.765,273.239 77.390,273.604 76.800 C 273.649 76.726,273.602 76.667,273.500 76.667 C 273.398 76.667,273.368 76.579,273.434 76.472 C 273.515 76.341,273.464 76.311,273.283 76.381 C 273.133 76.438,272.966 76.414,272.912 76.326 C 272.858 76.238,272.481 76.167,272.073 76.167 C 271.339 76.167,271.333 76.162,271.333 75.583 C 271.333 75.028,271.306 75.000,270.750 75.000 C 270.352 75.000,270.160 74.921,270.146 74.750 C 270.134 74.612,270.114 74.369,270.102 74.208 C 270.066 73.763,269.833 73.481,269.613 73.617 C 269.348 73.783,268.706 73.867,268.917 73.709 C 269.141 73.540,269.217 72.783,268.996 72.919 C 268.902 72.977,268.836 72.963,268.849 72.887 C 268.965 72.217,268.806 70.830,268.625 70.939 C 268.462 71.037,268.460 71.011,268.615 70.818 C 268.830 70.552,268.710 70.260,268.375 70.233 C 267.616 70.173,267.657 70.445,267.672 65.571 C 267.685 61.467,267.714 60.998,267.941 61.187 C 268.151 61.361,268.189 61.356,268.156 61.158 C 268.133 61.025,268.197 60.729,268.298 60.500 L 268.480 60.083 268.455 60.530 C 268.441 60.775,268.359 60.932,268.272 60.879 C 268.186 60.826,268.169 60.870,268.236 60.977 C 268.472 61.359,268.649 60.976,268.761 59.843 C 268.853 58.901,268.921 58.711,269.131 58.791 C 269.299 58.856,269.346 58.823,269.269 58.697 C 269.193 58.574,269.237 58.537,269.391 58.597 C 269.671 58.704,269.904 58.416,269.745 58.159 C 269.672 58.041,269.546 58.055,269.360 58.200 C 269.113 58.394,269.107 58.386,269.312 58.125 C 269.438 57.965,269.644 57.833,269.770 57.833 C 269.897 57.833,270.009 57.702,270.019 57.542 C 270.030 57.381,270.056 57.175,270.077 57.083 C 270.098 56.992,270.127 56.815,270.141 56.691 C 270.155 56.564,270.275 56.506,270.411 56.558 C 270.546 56.610,270.701 56.579,270.756 56.490 C 270.811 56.401,270.938 56.378,271.037 56.440 C 271.145 56.506,271.170 56.474,271.099 56.359 C 271.034 56.253,271.059 56.167,271.155 56.167 C 271.251 56.167,271.312 55.998,271.290 55.792 C 271.260 55.516,271.327 55.430,271.542 55.466 C 271.702 55.493,271.833 55.436,271.833 55.341 C 271.833 55.245,271.890 55.176,271.958 55.186 C 272.240 55.231,272.499 55.159,272.480 55.042 C 272.375 54.374,272.517 54.167,273.083 54.167 C 273.432 54.167,273.672 54.083,273.680 53.958 C 273.690 53.799,273.713 53.801,273.779 53.965 C 273.850 54.141,273.914 54.141,274.132 53.965 C 274.355 53.784,274.375 53.789,274.256 54.000 C 274.179 54.137,274.268 54.100,274.453 53.917 C 274.676 53.697,274.739 53.517,274.637 53.389 C 274.533 53.258,274.580 53.169,274.783 53.117 C 275.299 52.983,280.428 52.998,280.216 53.133 M326.792 73.458 C 326.767 77.010,326.746 74.104,326.746 67.000 C 326.746 59.896,326.767 56.990,326.792 60.542 C 326.817 64.094,326.817 69.906,326.792 73.458 M185.157 65.685 C 185.021 65.939,185.020 66.086,185.151 66.218 C 185.359 66.426,185.366 66.414,185.404 65.792 C 185.438 65.241,185.403 65.226,185.157 65.685 M245.074 68.070 C 244.896 68.200,244.788 68.343,244.834 68.389 C 244.879 68.434,245.094 68.328,245.310 68.152 C 245.763 67.785,245.560 67.714,245.074 68.070 M226.572 68.852 C 226.408 69.117,226.187 69.008,226.212 68.675 C 226.230 68.431,226.289 68.394,226.450 68.527 C 226.567 68.625,226.622 68.771,226.572 68.852 M365.322 71.125 C 365.311 71.525,365.293 71.541,365.176 71.250 C 365.102 71.067,365.074 70.860,365.114 70.792 C 365.255 70.548,365.333 70.673,365.322 71.125 M269.324 73.018 C 269.084 73.465,269.356 73.792,269.661 73.424 C 269.826 73.225,269.828 73.167,269.669 73.167 C 269.556 73.167,269.507 73.055,269.560 72.917 C 269.703 72.545,269.540 72.614,269.324 73.018 M242.111 76.075 C 242.111 76.199,242.024 76.268,241.917 76.227 C 241.810 76.186,241.722 76.050,241.722 75.925 C 241.722 75.801,241.810 75.732,241.917 75.773 C 242.024 75.814,242.111 75.950,242.111 76.075 M266.156 81.570 C 266.341 81.793,266.247 81.815,265.698 81.679 C 265.635 81.664,265.833 81.333,265.906 81.333 C 265.935 81.333,266.048 81.440,266.156 81.570 " stroke="none" fill="#2cb4bc" fill-rule="evenodd"></path></g></svg>